<?xml version="1.0" encoding="utf-8"?>
<!-- Generator: Adobe Illustrator 27.5.0, SVG Export Plug-In . SVG Version: 6.00 Build 0)  -->
<svg version="1.1" xmlns="http://www.w3.org/2000/svg" xmlns:xlink="http://www.w3.org/1999/xlink" x="0px" y="0px"
	 viewBox="0 0 500 500" style="enable-background:new 0 0 500 500;" xml:space="preserve">
<g id="Background_Simple">
	<g>
		<path style="fill:#92E3A9;" d="M30.279,157.221c-3.332,5.515-6.357,11.263-9.031,17.269
			c-21.523,48.34-17.104,94.249-4.703,142.795c12.809,50.137,37.034,103.939,79.169,136.224c9.918,7.6,21.116,13.851,33.462,17.003
			c46.502,11.87,104.234-6.254,162.637,3.475c58.402,9.729,118.317-2.241,152.316-56.867c14.388-23.118,23.374-47.622,28.756-73.83
			c6.627-32.268,21.356-64.888,22.064-98.486c0.744-35.313-13.222-74.4-36.194-100.84c-26.21-30.166-68.517-33.554-104.008-48.359
			c-27.979-11.671-52.244-30.52-80.536-41.492c-43.344-16.81-99.001-17.447-139.675,9.205
			C95.08,89.171,54.551,117.039,30.279,157.221z"/>
		<path style="opacity:0.7;fill:#FFFFFF;" d="M30.279,157.221c-3.332,5.515-6.357,11.263-9.031,17.269
			c-21.523,48.34-17.104,94.249-4.703,142.795c12.809,50.137,37.034,103.939,79.169,136.224c9.918,7.6,21.116,13.851,33.462,17.003
			c46.502,11.87,104.234-6.254,162.637,3.475c58.402,9.729,118.317-2.241,152.316-56.867c14.388-23.118,23.374-47.622,28.756-73.83
			c6.627-32.268,21.356-64.888,22.064-98.486c0.744-35.313-13.222-74.4-36.194-100.84c-26.21-30.166-68.517-33.554-104.008-48.359
			c-27.979-11.671-52.244-30.52-80.536-41.492c-43.344-16.81-99.001-17.447-139.675,9.205
			C95.08,89.171,54.551,117.039,30.279,157.221z"/>
	</g>
</g>
<g id="Clouds_00000183934303037548257360000007976628770671065237_">
	<path style="fill:none;stroke:#263238;stroke-linecap:round;stroke-linejoin:round;stroke-miterlimit:10;" d="M338.273,68.44
		c-4.547-3.607-10.96-7.12-19.104-7.746c-17.675-1.36-20.395,12.917-26.513,15.636c-6.118,2.719-13.596-6.798-23.114-4.759
		c-9.517,2.039-8.838,10.877-13.596,11.557c-4.759,0.68-8.158-8.158-15.636-6.798c-7.478,1.36-6.798,6.118-12.237,8.838
		c-5.439,2.719-15.636,2.719-15.636,2.719h175.394c0,0-11.557-13.596-20.395-14.276c-8.838-0.68-17.675,3.399-21.074,3.399
		c0,0-1.357-2.132-3.997-4.859"/>
	<path style="fill:none;stroke:#263238;stroke-linecap:round;stroke-linejoin:round;stroke-miterlimit:10;" d="M148.956,43.759
		c-11.891-0.915-13.721,8.69-17.837,10.519c-4.116,1.829-9.147-4.574-15.55-3.201c-6.403,1.372-5.946,7.318-9.147,7.775
		c-3.201,0.457-5.488-5.488-10.519-4.573c-5.031,0.915-4.574,4.116-8.232,5.946c-3.659,1.829-10.519,1.829-10.519,1.829h117.996
		c0,0-7.775-9.147-13.72-9.604c-5.946-0.457-11.891,2.287-14.178,2.287c0,0-3.182-5-9.224-8.271"/>
</g>
<g id="Mountains">
	<g>
		<path style="fill:none;stroke:#263238;stroke-linecap:round;stroke-linejoin:round;stroke-miterlimit:10;" d="M478.771,176.188
			c4.355,3.018,6.955,4.834,6.955,4.834"/>
		<path style="fill:none;stroke:#263238;stroke-linecap:round;stroke-linejoin:round;stroke-miterlimit:10;" d="M24.806,178.983
			c0,0,139.364-83.618,154.32-80.219s132.566,50.307,132.566,50.307s69.916-30.707,75.747-31.669
			c4.496-0.742,60.478,37.474,85.887,55.02"/>
	</g>
</g>
<g id="Trees">
	<g>
		<path style="fill:#92E3A9;" d="M469.094,222.139c0,45.805-28.793,82.937-64.311,82.937c-35.519,0-64.312-37.132-64.312-82.937
			c0-45.805,28.793-203.233,64.312-203.233C440.301,18.906,469.094,176.334,469.094,222.139z"/>
		<path style="opacity:0.36;fill:#FFFFFF;" d="M469.094,222.139c0,45.805-28.793,82.937-64.311,82.937
			c-35.519,0-64.312-37.132-64.312-82.937c0-45.805,28.793-203.233,64.312-203.233C440.301,18.906,469.094,176.334,469.094,222.139z
			"/>
		<polygon style="fill:#B2B2B2;" points="370.042,226.257 390.554,232.99 400.715,245.989 398.938,285.787 387.114,278.236 
			398.571,294.023 398.036,437.996 408.126,437.996 406.777,263.776 440.843,246.104 421.369,252.881 425.277,241.85 
			415.967,254.762 406.671,257.997 406.008,221.772 439.839,179.474 421.708,196.536 424.775,184.672 416.102,201.813 
			405.819,211.489 404.782,154.893 401.097,237.436 369.037,205.464 386.648,227.993 		"/>
		<g>
			<path style="fill:#FFFFFF;" d="M440.163,155.072c0,0,0.595,5.56-2.635,9.642c-3.229,4.082-9.06,5.14-9.06,5.14
				s-0.595-5.56,2.635-9.642C434.332,156.13,440.163,155.072,440.163,155.072z"/>
			<path style="fill:#FFFFFF;" d="M459.546,180.701c0,0,0.595,5.56-2.635,9.642c-3.23,4.082-9.061,5.139-9.061,5.139
				s-0.595-5.56,2.635-9.642C453.715,181.759,459.546,180.701,459.546,180.701z"/>
			<path style="fill:#FFFFFF;" d="M459.538,230.6c0,0-1.428,5.424-5.93,8.245c-4.501,2.82-10.37,1.969-10.37,1.969
				s1.429-5.424,5.93-8.245C453.669,229.749,459.538,230.6,459.538,230.6z"/>
			<path style="fill:#FFFFFF;" d="M353.085,230.6c0,0,1.429,5.424,5.93,8.245c4.501,2.82,10.37,1.969,10.37,1.969
				s-1.429-5.424-5.93-8.245C358.954,229.749,353.085,230.6,353.085,230.6z"/>
			<path style="fill:#FFFFFF;" d="M437.15,209.887c0,0,0.595,5.56-2.635,9.642c-3.23,4.082-9.061,5.14-9.061,5.14
				s-0.595-5.56,2.635-9.642C431.319,210.945,437.15,209.887,437.15,209.887z"/>
			<path style="fill:#FFFFFF;" d="M432.129,127.192c0,0,0.595,5.56-2.635,9.642c-3.23,4.082-9.061,5.14-9.061,5.14
				s-0.595-5.56,2.635-9.642C426.298,128.249,432.129,127.192,432.129,127.192z"/>
			<path style="fill:#FFFFFF;" d="M420.58,148.456c0,0,0.595,5.56-2.635,9.642c-3.23,4.082-9.061,5.14-9.061,5.14
				s-0.595-5.56,2.635-9.642C414.749,149.514,420.58,148.456,420.58,148.456z"/>
			<path style="fill:#FFFFFF;" d="M447.997,132.974c0,0,0.595,5.56-2.634,9.642c-3.23,4.082-9.061,5.14-9.061,5.14
				s-0.595-5.56,2.635-9.642C442.166,134.031,447.997,132.974,447.997,132.974z"/>
			<path style="fill:#FFFFFF;" d="M358.903,132.974c0,0-0.595,5.56,2.635,9.642c3.23,4.082,9.061,5.14,9.061,5.14
				s0.595-5.56-2.635-9.642C364.734,134.031,358.903,132.974,358.903,132.974z"/>
			<path style="fill:#FFFFFF;" d="M434.639,101.202c0,0,0.595,5.56-2.635,9.642c-3.229,4.082-9.061,5.14-9.061,5.14
				s-0.595-5.56,2.635-9.642C428.809,102.26,434.639,101.202,434.639,101.202z"/>
			<path style="fill:#FFFFFF;" d="M428.964,73.594c0,0,2.06,5.241,0.024,9.956c-2.036,4.715-7.398,7.117-7.398,7.117
				s-2.06-5.242-0.024-9.956C423.602,75.996,428.964,73.594,428.964,73.594z"/>
			<path style="fill:#FFFFFF;" d="M388.295,66.38c0,0,5.261,2.593,7.104,7.377c1.844,4.784-0.427,9.948-0.427,9.948
				s-5.261-2.593-7.104-7.377C386.024,71.543,388.295,66.38,388.295,66.38z"/>
			<path style="fill:#FFFFFF;" d="M407.26,99.393c0,0,3.747,4.335,3.437,9.416c-0.311,5.081-4.562,8.983-4.562,8.983
				s-3.748-4.335-3.437-9.416C403.009,103.296,407.26,99.393,407.26,99.393z"/>
			<path style="fill:#FFFFFF;" d="M406.256,50.249c0,0,3.747,4.335,3.437,9.416c-0.31,5.081-4.561,8.983-4.561,8.983
				s-3.747-4.335-3.437-9.416C402.005,54.151,406.256,50.249,406.256,50.249z"/>
			<path style="fill:#FFFFFF;" d="M363.692,155.072c0,0-0.595,5.56,2.635,9.642c3.23,4.082,9.061,5.14,9.061,5.14
				s0.595-5.56-2.635-9.642C369.523,156.13,363.692,155.072,363.692,155.072z"/>
			<path style="fill:#FFFFFF;" d="M352.645,185.315c0,0-0.595,5.561,2.635,9.642c3.23,4.082,9.06,5.14,9.06,5.14
				s0.595-5.561-2.635-9.642C358.476,186.372,352.645,185.315,352.645,185.315z"/>
			<path style="fill:#FFFFFF;" d="M381.969,196.295c0,0-0.595,5.56,2.635,9.642c3.229,4.082,9.06,5.14,9.06,5.14
				s0.595-5.56-2.634-9.642C387.8,197.352,381.969,196.295,381.969,196.295z"/>
			<path style="fill:#FFFFFF;" d="M389.986,154.39c0,0-2.262,5.167-0.41,9.948c1.852,4.781,7.117,7.366,7.117,7.366
				s2.262-5.167,0.41-9.949C395.251,156.974,389.986,154.39,389.986,154.39z"/>
			<path style="fill:#FFFFFF;" d="M369.221,265.897c0,0,5.938,0.102,9.996-3.262c4.058-3.363,4.7-8.919,4.7-8.919
				s-5.938-0.102-9.995,3.262C369.864,260.342,369.221,265.897,369.221,265.897z"/>
			<path style="fill:#FFFFFF;" d="M426.195,259.785c0,0,1.613,5.378,6.208,8.062c4.595,2.683,10.432,1.655,10.432,1.655
				s-1.613-5.378-6.208-8.062C432.032,258.757,426.195,259.785,426.195,259.785z"/>
			<path style="fill:#FFFFFF;" d="M375.845,127.192c0,0-0.595,5.56,2.635,9.642c3.23,4.082,9.061,5.14,9.061,5.14
				s0.595-5.56-2.635-9.642C381.676,128.249,375.845,127.192,375.845,127.192z"/>
			<path style="fill:#FFFFFF;" d="M375.743,102.619c0,0-0.595,5.56,2.635,9.642c3.229,4.082,9.061,5.14,9.061,5.14
				s0.595-5.56-2.635-9.642C381.574,103.677,375.743,102.619,375.743,102.619z"/>
		</g>
	</g>
	<g>
		<path style="fill:#92E3A9;" d="M131.538,256.976c0,38.413-24.146,69.552-53.932,69.552c-29.787,0-53.933-31.139-53.933-69.552
			c0-38.413,24.146-170.434,53.933-170.434C107.392,86.542,131.538,218.564,131.538,256.976z"/>
		<path style="opacity:0.36;fill:#FFFFFF;" d="M131.538,256.976c0,38.413-24.146,69.552-53.932,69.552
			c-29.787,0-53.933-31.139-53.933-69.552c0-38.413,24.146-170.434,53.933-170.434C107.392,86.542,131.538,218.564,131.538,256.976z
			"/>
		<polygon style="fill:#B2B2B2;" points="48.472,260.429 65.674,266.076 74.195,276.977 72.705,310.352 62.789,304.02 
			72.396,317.259 71.949,437.996 80.409,437.996 79.279,291.893 107.847,277.073 91.516,282.756 94.793,273.506 86.985,284.334 
			79.19,287.047 78.633,256.668 107.004,221.197 91.8,235.505 94.371,225.556 87.098,239.93 78.475,248.044 77.606,200.582 
			74.515,269.804 47.63,242.992 62.398,261.885 		"/>
		<g>
			<path style="fill:#FFFFFF;" d="M107.276,200.732c0,0,0.499,4.663-2.21,8.086c-2.708,3.423-7.598,4.31-7.598,4.31
				s-0.499-4.663,2.21-8.086C102.386,201.62,107.276,200.732,107.276,200.732z"/>
			<path style="fill:#FFFFFF;" d="M123.532,222.225c0,0,0.499,4.663-2.21,8.086c-2.709,3.423-7.598,4.31-7.598,4.31
				s-0.499-4.663,2.209-8.086C118.641,223.112,123.532,222.225,123.532,222.225z"/>
			<path style="fill:#FFFFFF;" d="M123.524,264.071c0,0-1.198,4.549-4.973,6.914c-3.774,2.365-8.697,1.652-8.697,1.652
				s1.198-4.549,4.973-6.914C118.603,263.358,123.524,264.071,123.524,264.071z"/>
			<path style="fill:#FFFFFF;" d="M34.251,264.071c0,0,1.199,4.549,4.973,6.914c3.775,2.365,8.697,1.652,8.697,1.652
				s-1.198-4.549-4.973-6.914C39.173,263.358,34.251,264.071,34.251,264.071z"/>
			<path style="fill:#FFFFFF;" d="M104.749,246.701c0,0,0.499,4.663-2.209,8.086c-2.708,3.423-7.598,4.31-7.598,4.31
				s-0.499-4.663,2.21-8.086C99.86,247.588,104.749,246.701,104.749,246.701z"/>
			<path style="fill:#FFFFFF;" d="M100.539,177.352c0,0,0.499,4.663-2.21,8.086c-2.708,3.423-7.598,4.31-7.598,4.31
				s-0.499-4.663,2.21-8.086C95.649,178.239,100.539,177.352,100.539,177.352z"/>
			<path style="fill:#FFFFFF;" d="M90.854,195.185c0,0,0.499,4.663-2.21,8.086c-2.708,3.423-7.599,4.31-7.599,4.31
				s-0.499-4.663,2.21-8.086C85.964,196.072,90.854,195.185,90.854,195.185z"/>
			<path style="fill:#FFFFFF;" d="M113.846,182.201c0,0,0.499,4.663-2.209,8.086c-2.708,3.423-7.598,4.31-7.598,4.31
				s-0.499-4.663,2.21-8.086C108.956,183.088,113.846,182.201,113.846,182.201z"/>
			<path style="fill:#FFFFFF;" d="M39.131,182.201c0,0-0.499,4.663,2.209,8.086c2.709,3.423,7.599,4.31,7.599,4.31
				s0.499-4.663-2.21-8.086C44.02,183.088,39.131,182.201,39.131,182.201z"/>
			<path style="fill:#FFFFFF;" d="M102.644,155.557c0,0,0.499,4.663-2.21,8.086c-2.708,3.423-7.598,4.31-7.598,4.31
				s-0.499-4.663,2.21-8.086C97.754,156.444,102.644,155.557,102.644,155.557z"/>
			<path style="fill:#FFFFFF;" d="M97.884,132.404c0,0,1.728,4.395,0.02,8.349c-1.707,3.954-6.204,5.968-6.204,5.968
				s-1.728-4.396-0.02-8.349C93.388,134.419,97.884,132.404,97.884,132.404z"/>
			<path style="fill:#FFFFFF;" d="M63.779,126.354c0,0,4.412,2.174,5.958,6.187c1.546,4.012-0.358,8.342-0.358,8.342
				s-4.412-2.175-5.958-6.187C61.875,130.684,63.779,126.354,63.779,126.354z"/>
			<path style="fill:#FFFFFF;" d="M79.683,154.04c0,0,3.142,3.636,2.882,7.896c-0.261,4.261-3.825,7.533-3.825,7.533
				s-3.143-3.635-2.882-7.896C76.118,157.312,79.683,154.04,79.683,154.04z"/>
			<path style="fill:#FFFFFF;" d="M78.841,112.827c0,0,3.142,3.635,2.882,7.896c-0.26,4.261-3.825,7.533-3.825,7.533
				s-3.143-3.635-2.882-7.896C75.276,116.099,78.841,112.827,78.841,112.827z"/>
			<path style="fill:#FFFFFF;" d="M43.146,200.732c0,0-0.499,4.663,2.21,8.086c2.709,3.423,7.598,4.31,7.598,4.31
				s0.499-4.663-2.21-8.086C48.037,201.62,43.146,200.732,43.146,200.732z"/>
			<path style="fill:#FFFFFF;" d="M33.882,226.094c0,0-0.499,4.663,2.21,8.086c2.708,3.423,7.598,4.31,7.598,4.31
				s0.499-4.663-2.21-8.086C38.772,226.982,33.882,226.094,33.882,226.094z"/>
			<path style="fill:#FFFFFF;" d="M58.474,235.303c0,0-0.499,4.663,2.21,8.086c2.708,3.423,7.598,4.31,7.598,4.31
				s0.499-4.663-2.209-8.086C63.364,236.189,58.474,235.303,58.474,235.303z"/>
			<path style="fill:#FFFFFF;" d="M65.197,200.16c0,0-1.897,4.333-0.343,8.343c1.553,4.01,5.968,6.178,5.968,6.178
				s1.897-4.333,0.344-8.343C69.613,202.328,65.197,200.16,65.197,200.16z"/>
			<path style="fill:#FFFFFF;" d="M47.784,293.672c0,0,4.979,0.086,8.383-2.735c3.403-2.821,3.942-7.48,3.942-7.48
				s-4.979-0.085-8.382,2.735C48.323,289.013,47.784,293.672,47.784,293.672z"/>
			<path style="fill:#FFFFFF;" d="M95.563,288.546c0,0,1.353,4.51,5.206,6.761c3.853,2.25,8.748,1.388,8.748,1.388
				s-1.353-4.51-5.206-6.76C100.458,287.684,95.563,288.546,95.563,288.546z"/>
			<path style="fill:#FFFFFF;" d="M53.338,177.352c0,0-0.499,4.663,2.21,8.086c2.709,3.423,7.598,4.31,7.598,4.31
				s0.499-4.663-2.209-8.086C58.228,178.239,53.338,177.352,53.338,177.352z"/>
			<path style="fill:#FFFFFF;" d="M53.253,156.745c0,0-0.499,4.663,2.21,8.086c2.708,3.423,7.598,4.31,7.598,4.31
				s0.499-4.663-2.21-8.086C58.143,157.632,53.253,156.745,53.253,156.745z"/>
		</g>
	</g>
</g>
<g id="Plants_00000118362618802566773170000010850321308117382556_">
	<g>
		<path style="fill:#263238;" d="M426.404,378.948c1.963,0.857,6.765,0.749,6.768,0.749c0.05-0.001-1.032-3.143-1.123-3.333
			c-1.053-2.204-4.385-5.843-7.096-5.477c-1.953,0.264-3.039,2.218-2.598,4.057C422.806,376.822,424.732,378.217,426.404,378.948z"
			/>
		<path style="fill:#263238;" d="M428.062,392.856c2.036,0.297,6.321-0.946,6.662-1.046c0.677,2.399,1.565,4.806,2.599,7.191
			c0.589,1.365,1.225,2.721,1.88,4.073c-0.391-0.572-0.745-1.081-0.802-1.148c-1.599-1.848-5.773-4.477-8.29-3.408
			c-1.815,0.77-2.345,2.942-1.435,4.599c0.93,1.692,3.157,2.529,4.962,2.792c1.832,0.267,5.506-0.719,6.476-0.993
			c0.257,0.516,0.507,1.034,0.766,1.549c1.241,2.471,2.49,4.931,3.641,7.382c0.406,0.863,0.774,1.728,1.146,2.593
			c-0.348-0.508-0.645-0.933-0.697-0.994c-1.598-1.847-5.772-4.477-8.29-3.408c-1.814,0.77-2.345,2.942-1.434,4.599
			c0.931,1.692,3.157,2.529,4.962,2.792c1.748,0.255,5.148-0.625,6.301-0.945c0.354,0.897,0.71,1.794,1.012,2.679
			c0.193,0.609,0.422,1.181,0.58,1.804c0.171,0.613,0.34,1.219,0.508,1.82c0.28,1.168,0.577,2.373,0.822,3.52
			c0.176,0.797,0.33,1.559,0.487,2.326c-0.394-0.864-1.202-2.54-1.285-2.672c-1.299-2.068-5.027-5.299-7.678-4.624
			c-1.91,0.487-2.764,2.553-2.114,4.328c0.663,1.814,2.737,2.978,4.482,3.512c1.921,0.587,6.174,0.051,6.705-0.02
			c0.255,1.271,0.491,2.509,0.695,3.682c0.153,0.868,0.292,1.701,0.42,2.502h1.703c-0.161-0.892-0.336-1.824-0.53-2.8
			c-0.253-1.291-0.55-2.666-0.868-4.075c0.32-0.127,2.134-0.861,3.741-1.759c1.4,1.516,4.988,3.291,5.452,3.516
			c-0.488,1.201-0.975,2.364-1.452,3.454c-0.251,0.578-0.495,1.123-0.738,1.664h1.801c0.143-0.342,0.284-0.677,0.43-1.034
			c0.501-1.217,1.012-2.528,1.524-3.878c0.515,0.108,4.725,0.962,6.687,0.52c1.779-0.402,3.935-1.409,4.732-3.169
			c0.78-1.722,0.082-3.846-1.787-4.474c-2.593-0.871-6.551,2.074-8.001,4.039c-0.086,0.116-0.873,1.478-1.356,2.345
			c0.206-0.553,0.412-1.087,0.618-1.659c0.414-1.128,0.794-2.266,1.207-3.488c0.179-0.598,0.359-1.201,0.542-1.81
			c0.193-0.601,0.322-1.26,0.487-1.895c0.353-1.481,0.638-2.998,0.892-4.533c0.988,0.36,4.518,1.588,6.346,1.459
			c1.82-0.128,4.102-0.796,5.156-2.415c1.032-1.585,0.664-3.79-1.088-4.694c-2.431-1.254-6.79,1.058-8.521,2.781
			c-0.108,0.107-1.211,1.483-1.803,2.251c0.145-0.924,0.294-1.845,0.411-2.785c0.337-2.712,0.593-5.468,0.861-8.216
			c0.081-0.842,0.173-1.68,0.261-2.519c0.351,0.132,4.513,1.682,6.562,1.538c1.82-0.127,4.103-0.796,5.156-2.415
			c1.032-1.584,0.664-3.79-1.088-4.693c-2.431-1.254-6.789,1.057-8.521,2.781c-0.13,0.13-1.715,2.112-2.094,2.636
			c0.195-1.848,0.407-3.687,0.69-5.493c0.386-2.491,0.903-4.914,1.577-7.224c0.163,0.062,4.501,1.699,6.598,1.552
			c1.82-0.128,4.103-0.797,5.157-2.415c1.032-1.584,0.664-3.789-1.088-4.693c-2.432-1.254-6.79,1.058-8.521,2.781
			c-0.135,0.135-1.84,2.269-2.121,2.678c0.041-0.137,0.067-0.284,0.109-0.421c0.751-2.457,1.787-4.743,2.862-6.836
			c0.622-1.217,1.285-2.346,1.954-3.43c0.777,0.388,4.346,2.121,6.248,2.197c1.823,0.073,4.166-0.341,5.391-1.834
			c1.2-1.462,1.076-3.694-0.565-4.784c-2.279-1.513-6.865,0.305-8.775,1.828c-0.104,0.082-1.066,1.041-1.757,1.749
			c0.309-0.485,0.62-0.99,0.926-1.448c1.144-1.724,2.298-3.231,3.331-4.558c0.593-0.75,1.145-1.416,1.667-2.034
			c0.96-0.017,4.831-0.134,6.523-0.929c1.651-0.776,3.54-2.222,3.939-4.111c0.391-1.85-0.748-3.775-2.707-3.986
			c-2.72-0.293-5.952,3.434-6.945,5.666c-0.086,0.193-1.082,3.363-1.032,3.363c0,0,0.047,0,0.058-0.001
			c-0.515,0.584-1.06,1.217-1.642,1.92c-1.064,1.307-2.254,2.793-3.44,4.498c-1.19,1.701-2.435,3.582-3.567,5.683
			c-1.138,2.103-2.227,4.375-3.047,6.859c-0.009,0.028-0.015,0.059-0.025,0.087c0.014-0.801-0.021-3.043-0.044-3.215
			c-0.314-2.422-2.344-6.919-5.035-7.416c-1.938-0.358-3.579,1.16-3.733,3.045c-0.157,1.925,1.238,3.851,2.599,5.066
			c1.535,1.371,5.794,2.698,6.134,2.803c-0.76,2.374-1.345,4.871-1.8,7.431c-0.261,1.464-0.479,2.946-0.678,4.435
			c-0.01-0.693-0.024-1.313-0.036-1.4c-0.314-2.423-2.344-6.918-5.035-7.416c-1.938-0.358-3.579,1.16-3.733,3.044
			c-0.158,1.925,1.238,3.851,2.598,5.066c1.381,1.233,4.989,2.438,5.948,2.744c-0.07,0.572-0.147,1.143-0.215,1.715
			c-0.328,2.745-0.643,5.486-1.035,8.165c-0.137,0.944-0.308,1.869-0.475,2.794c-0.01-0.615-0.023-1.134-0.033-1.212
			c-0.314-2.423-2.344-6.919-5.034-7.416c-1.938-0.358-3.58,1.16-3.734,3.045c-0.158,1.924,1.238,3.851,2.599,5.066
			c1.317,1.177,4.639,2.319,5.777,2.688c-0.2,0.943-0.398,1.888-0.634,2.793c-0.175,0.614-0.301,1.217-0.511,1.825
			c-0.195,0.605-0.389,1.205-0.58,1.798c-0.411,1.13-0.828,2.298-1.257,3.389c-0.292,0.762-0.585,1.482-0.878,2.208
			c0.148-0.938,0.399-2.781,0.403-2.937c0.037-1.623-0.539-4.26-1.686-6.115c0.007-0.24-0.007-0.479-0.045-0.716
			c-0.3-1.867-2.054-3.254-3.959-2.746c-2.643,0.704-4.32,5.344-4.445,7.783c-0.007,0.144,0.087,1.714,0.163,2.704
			c-0.134-0.575-0.256-1.135-0.4-1.725c-0.277-1.169-0.589-2.328-0.918-3.576c-0.18-0.597-0.363-1.199-0.547-1.809
			c-0.17-0.607-0.426-1.228-0.639-1.849c-0.523-1.429-1.122-2.853-1.758-4.273c1.024-0.245,4.644-1.168,6.098-2.284
			c1.448-1.111,2.983-2.928,2.969-4.858c-0.014-1.891-1.537-3.527-3.496-3.314c-2.72,0.295-5.08,4.628-5.574,7.02
			c-0.031,0.149-0.192,1.905-0.262,2.872c-0.389-0.85-0.772-1.702-1.194-2.55c-1.215-2.448-2.521-4.888-3.814-7.328
			c-0.396-0.747-0.782-1.496-1.172-2.245c0.365-0.084,4.693-1.088,6.321-2.337c1.447-1.11,2.983-2.928,2.969-4.859
			c-0.014-1.89-1.537-3.527-3.496-3.314c-2.72,0.295-5.08,4.627-5.573,7.02c-0.037,0.18-0.265,2.708-0.292,3.353
			c-0.857-1.649-1.695-3.3-2.455-4.961c-1.052-2.291-1.958-4.596-2.67-6.895c0.17-0.039,4.691-1.066,6.359-2.346
			c1.448-1.111,2.983-2.928,2.969-4.859c-0.013-1.891-1.537-3.527-3.496-3.314c-2.719,0.295-5.079,4.628-5.573,7.02
			c-0.039,0.188-0.283,2.908-0.292,3.403c-0.042-0.136-0.101-0.273-0.142-0.41c-0.729-2.465-1.126-4.942-1.384-7.281
			c-0.153-1.358-0.222-2.665-0.262-3.938c0.862-0.105,4.795-0.629,6.423-1.615c1.561-0.945,3.287-2.583,3.485-4.503
			c0.194-1.881-1.141-3.675-3.111-3.678c-2.736-0.005-5.557,4.042-6.31,6.365c-0.041,0.126-0.316,1.457-0.501,2.429
			c-0.009-0.575-0.029-1.168-0.027-1.719c0.004-2.069,0.134-3.963,0.264-5.639c0.081-0.953,0.174-1.813,0.269-2.616
			c0.791-0.544,3.955-2.778,4.928-4.374c0.95-1.558,1.727-3.806,1.017-5.602c-0.694-1.759-2.706-2.736-4.456-1.831
			c-2.43,1.256-3.07,6.148-2.668,8.557c0.035,0.208,0.953,3.402,0.995,3.374c0,0,0.039-0.026,0.048-0.033
			c-0.107,0.771-0.213,1.6-0.31,2.507c-0.167,1.677-0.339,3.573-0.387,5.65c-0.054,2.075-0.055,4.331,0.16,6.708
			c0.212,2.382,0.555,4.877,1.243,7.402c0.008,0.029,0.02,0.057,0.027,0.086c-0.43-0.676-1.697-2.526-1.81-2.657
			c-1.598-1.847-5.772-4.477-8.29-3.408c-1.814,0.771-2.345,2.942-1.434,4.6C424.03,391.756,426.257,392.593,428.062,392.856z"/>
		<path style="fill:#263238;" d="M474.97,380.004c0.042,0.026,0.873-3.191,0.903-3.4c0.337-2.419-0.435-7.292-2.898-8.482
			c-1.774-0.857-3.758,0.174-4.405,1.951c-0.66,1.814,0.177,4.041,1.168,5.572C470.903,377.444,474.967,380.002,474.97,380.004z"/>
	</g>
	<g>
		<path style="fill:#263238;" d="M16.91,378.948c1.963,0.857,6.765,0.749,6.769,0.749c0.05-0.001-1.032-3.143-1.123-3.333
			c-1.053-2.204-4.385-5.843-7.096-5.477c-1.953,0.264-3.039,2.218-2.598,4.057C13.312,376.822,15.238,378.217,16.91,378.948z"/>
		<path style="fill:#263238;" d="M18.567,392.856c2.036,0.297,6.321-0.946,6.662-1.046c0.677,2.399,1.565,4.806,2.599,7.191
			c0.589,1.365,1.226,2.721,1.88,4.073c-0.391-0.572-0.745-1.081-0.802-1.148c-1.599-1.848-5.773-4.477-8.29-3.408
			c-1.815,0.77-2.345,2.942-1.435,4.599c0.93,1.692,3.157,2.529,4.962,2.792c1.832,0.267,5.506-0.719,6.476-0.993
			c0.257,0.516,0.507,1.034,0.766,1.549c1.241,2.471,2.49,4.931,3.641,7.382c0.406,0.863,0.774,1.728,1.146,2.593
			c-0.348-0.508-0.645-0.933-0.697-0.994c-1.598-1.847-5.772-4.477-8.29-3.408c-1.814,0.77-2.345,2.942-1.434,4.599
			c0.931,1.692,3.157,2.529,4.962,2.792c1.748,0.255,5.148-0.625,6.301-0.945c0.354,0.897,0.71,1.794,1.012,2.679
			c0.193,0.609,0.422,1.181,0.58,1.804c0.171,0.613,0.34,1.219,0.508,1.82c0.28,1.168,0.577,2.373,0.822,3.52
			c0.176,0.797,0.33,1.559,0.487,2.326c-0.394-0.864-1.202-2.54-1.285-2.672c-1.299-2.068-5.027-5.299-7.678-4.624
			c-1.91,0.487-2.764,2.553-2.114,4.328c0.663,1.814,2.737,2.978,4.481,3.512c1.921,0.587,6.174,0.051,6.705-0.02
			c0.255,1.271,0.491,2.509,0.695,3.682c0.153,0.868,0.292,1.701,0.42,2.502h1.703c-0.161-0.892-0.336-1.824-0.53-2.8
			c-0.253-1.291-0.55-2.666-0.868-4.075c0.32-0.127,2.134-0.861,3.741-1.759c1.4,1.516,4.988,3.291,5.452,3.516
			c-0.488,1.201-0.975,2.364-1.452,3.454c-0.251,0.578-0.495,1.123-0.738,1.664h1.801c0.143-0.342,0.284-0.677,0.43-1.034
			c0.501-1.217,1.012-2.528,1.524-3.878c0.515,0.108,4.725,0.962,6.687,0.52c1.779-0.402,3.935-1.409,4.732-3.169
			c0.78-1.722,0.082-3.846-1.787-4.474c-2.593-0.871-6.551,2.074-8.001,4.039c-0.086,0.116-0.873,1.478-1.356,2.345
			c0.206-0.553,0.412-1.087,0.618-1.659c0.414-1.128,0.794-2.266,1.207-3.488c0.179-0.598,0.359-1.201,0.542-1.81
			c0.193-0.601,0.322-1.26,0.487-1.895c0.353-1.481,0.638-2.998,0.891-4.533c0.988,0.36,4.518,1.588,6.346,1.459
			c1.82-0.128,4.102-0.796,5.156-2.415c1.032-1.585,0.664-3.79-1.088-4.694c-2.431-1.254-6.79,1.058-8.521,2.781
			c-0.108,0.107-1.211,1.483-1.803,2.251c0.145-0.924,0.294-1.845,0.411-2.785c0.337-2.712,0.593-5.468,0.861-8.216
			c0.081-0.842,0.173-1.68,0.261-2.519c0.351,0.132,4.514,1.682,6.562,1.538c1.82-0.127,4.103-0.796,5.156-2.415
			c1.032-1.584,0.664-3.79-1.088-4.693c-2.431-1.254-6.789,1.057-8.521,2.781c-0.13,0.13-1.715,2.112-2.094,2.636
			c0.195-1.848,0.407-3.687,0.689-5.493c0.386-2.491,0.903-4.914,1.577-7.224c0.163,0.062,4.501,1.699,6.598,1.552
			c1.82-0.128,4.103-0.797,5.157-2.415c1.032-1.584,0.664-3.789-1.088-4.693c-2.432-1.254-6.79,1.058-8.521,2.781
			c-0.135,0.135-1.839,2.269-2.121,2.678c0.041-0.137,0.067-0.284,0.109-0.421c0.751-2.457,1.787-4.743,2.862-6.836
			c0.622-1.217,1.285-2.346,1.954-3.43c0.777,0.388,4.346,2.121,6.248,2.197c1.823,0.073,4.166-0.341,5.391-1.834
			c1.2-1.462,1.076-3.694-0.565-4.784c-2.279-1.513-6.865,0.305-8.775,1.828c-0.104,0.082-1.066,1.041-1.757,1.749
			c0.309-0.485,0.62-0.99,0.926-1.448c1.144-1.724,2.298-3.231,3.331-4.558c0.593-0.75,1.145-1.416,1.668-2.034
			c0.96-0.017,4.831-0.134,6.523-0.929c1.651-0.776,3.54-2.222,3.939-4.111c0.391-1.85-0.748-3.775-2.707-3.986
			c-2.719-0.293-5.952,3.434-6.945,5.666c-0.086,0.193-1.082,3.363-1.032,3.363c0,0,0.047,0,0.058-0.001
			c-0.515,0.584-1.06,1.217-1.641,1.92c-1.064,1.307-2.254,2.793-3.44,4.498c-1.19,1.701-2.435,3.582-3.567,5.683
			c-1.138,2.103-2.227,4.375-3.047,6.859c-0.009,0.028-0.015,0.059-0.025,0.087c0.014-0.801-0.021-3.043-0.044-3.215
			c-0.314-2.422-2.344-6.919-5.035-7.416c-1.938-0.358-3.579,1.16-3.733,3.045c-0.157,1.925,1.238,3.851,2.599,5.066
			c1.535,1.371,5.794,2.698,6.134,2.803c-0.76,2.374-1.345,4.871-1.8,7.431c-0.261,1.464-0.479,2.946-0.678,4.435
			c-0.01-0.693-0.024-1.313-0.036-1.4c-0.314-2.423-2.344-6.918-5.035-7.416c-1.938-0.358-3.579,1.16-3.733,3.044
			c-0.158,1.925,1.238,3.851,2.598,5.066c1.381,1.233,4.989,2.438,5.949,2.744c-0.07,0.572-0.147,1.143-0.215,1.715
			c-0.328,2.745-0.643,5.486-1.035,8.165c-0.137,0.944-0.308,1.869-0.475,2.794c-0.01-0.615-0.023-1.134-0.033-1.212
			c-0.314-2.423-2.344-6.919-5.034-7.416c-1.938-0.358-3.58,1.16-3.734,3.045c-0.158,1.924,1.238,3.851,2.599,5.066
			c1.317,1.177,4.639,2.319,5.777,2.688c-0.2,0.943-0.398,1.888-0.634,2.793c-0.175,0.614-0.301,1.217-0.511,1.825
			c-0.195,0.605-0.389,1.205-0.58,1.798c-0.411,1.13-0.828,2.298-1.257,3.389c-0.292,0.762-0.585,1.482-0.878,2.208
			c0.148-0.938,0.399-2.781,0.403-2.937c0.037-1.623-0.539-4.26-1.686-6.115c0.007-0.24-0.007-0.479-0.045-0.716
			c-0.3-1.867-2.054-3.254-3.959-2.746c-2.643,0.704-4.32,5.344-4.445,7.783c-0.007,0.144,0.087,1.714,0.162,2.704
			c-0.134-0.575-0.256-1.135-0.4-1.725c-0.277-1.169-0.589-2.328-0.918-3.576c-0.18-0.597-0.363-1.199-0.547-1.809
			c-0.17-0.607-0.426-1.228-0.639-1.849c-0.523-1.429-1.122-2.853-1.757-4.273c1.024-0.245,4.644-1.168,6.098-2.284
			c1.448-1.111,2.983-2.928,2.969-4.858c-0.014-1.891-1.537-3.527-3.496-3.314c-2.72,0.295-5.08,4.628-5.574,7.02
			c-0.031,0.149-0.192,1.905-0.262,2.872c-0.389-0.85-0.772-1.702-1.194-2.55c-1.215-2.448-2.521-4.888-3.814-7.328
			c-0.396-0.747-0.782-1.496-1.171-2.245c0.365-0.084,4.693-1.088,6.321-2.337c1.447-1.11,2.983-2.928,2.969-4.859
			c-0.014-1.89-1.537-3.527-3.496-3.314c-2.72,0.295-5.08,4.627-5.573,7.02c-0.037,0.18-0.265,2.708-0.292,3.353
			c-0.857-1.649-1.695-3.3-2.455-4.961c-1.052-2.291-1.958-4.596-2.67-6.895c0.17-0.039,4.691-1.066,6.359-2.346
			c1.448-1.111,2.983-2.928,2.969-4.859c-0.013-1.891-1.537-3.527-3.496-3.314c-2.719,0.295-5.08,4.628-5.573,7.02
			c-0.039,0.188-0.283,2.908-0.292,3.403c-0.042-0.136-0.101-0.273-0.142-0.41c-0.729-2.465-1.126-4.942-1.384-7.281
			c-0.153-1.358-0.222-2.665-0.262-3.938c0.862-0.105,4.795-0.629,6.423-1.615c1.561-0.945,3.287-2.583,3.485-4.503
			c0.194-1.881-1.141-3.675-3.111-3.678c-2.736-0.005-5.557,4.042-6.31,6.365c-0.041,0.126-0.316,1.457-0.501,2.429
			c-0.009-0.575-0.029-1.168-0.027-1.719c0.004-2.069,0.135-3.963,0.264-5.639c0.081-0.953,0.174-1.813,0.269-2.616
			c0.791-0.544,3.955-2.778,4.928-4.374c0.95-1.558,1.726-3.806,1.017-5.602c-0.694-1.759-2.706-2.736-4.456-1.831
			c-2.43,1.256-3.069,6.148-2.668,8.557c0.035,0.208,0.953,3.402,0.995,3.374c0,0,0.038-0.026,0.048-0.033
			c-0.107,0.771-0.213,1.6-0.309,2.507c-0.167,1.677-0.339,3.573-0.388,5.65c-0.054,2.075-0.055,4.331,0.16,6.708
			c0.212,2.382,0.556,4.877,1.243,7.402c0.008,0.029,0.02,0.057,0.028,0.086c-0.43-0.676-1.697-2.526-1.81-2.657
			c-1.598-1.847-5.772-4.477-8.29-3.408c-1.814,0.771-2.345,2.942-1.434,4.6C14.536,391.756,16.762,392.593,18.567,392.856z"/>
		<path style="fill:#263238;" d="M65.476,380.004c0.042,0.026,0.873-3.191,0.903-3.4c0.337-2.419-0.435-7.292-2.898-8.482
			c-1.774-0.857-3.758,0.174-4.404,1.951c-0.661,1.814,0.177,4.041,1.168,5.572C61.408,377.444,65.473,380.002,65.476,380.004z"/>
	</g>
</g>
<g id="Characters">
	<g>
		<g>
			<path style="fill:#FFFFFF;stroke:#263238;stroke-linecap:round;stroke-linejoin:round;stroke-miterlimit:10;" d="
				M326.822,160.275c0,0-2.992,0.249-5.983,3.241c-2.992,2.992-14.709,15.706-14.709,15.706l32.659-0.499L326.822,160.275z"/>
			<path style="fill:#92E3A9;stroke:#263238;stroke-linecap:round;stroke-linejoin:round;stroke-miterlimit:10;" d="
				M313.608,179.971c0,0,19.196-9.474,32.659-4.737c13.462,4.737,18.698,22.437,24.182,37.645
				c5.485,15.208,8.975,27.423,8.975,27.423l-9.723,6.233L313.608,179.971z"/>
			<path style="opacity:0.41;" d="M313.608,179.971c0,0,19.196-9.474,32.659-4.737c13.462,4.737,18.698,22.437,24.182,37.645
				c5.485,15.208,8.975,27.423,8.975,27.423l-9.723,6.233L313.608,179.971z"/>
			<path style="fill:#FFFFFF;stroke:#263238;stroke-linecap:round;stroke-linejoin:round;stroke-miterlimit:10;" d="M348.76,165.511
				c0,0,4.737,2.244,5.485,4.737c0.748,2.493-1.496,8.476-2.742,8.975c-1.246,0.499-1.745-2.992-1.745-2.992L348.76,165.511z"/>
			<path style="fill:#FFFFFF;stroke:#263238;stroke-linecap:round;stroke-linejoin:round;stroke-miterlimit:10;" d="
				M341.281,161.273c0,0,6.233,0.249,7.479,4.238c1.246,3.989,0.997,11.468,0.249,12.465c-0.748,0.997-5.235,0.499-4.986-0.997
				S341.281,161.273,341.281,161.273z"/>
			<path style="fill:#FFFFFF;stroke:#263238;stroke-linecap:round;stroke-linejoin:round;stroke-miterlimit:10;" d="
				M332.057,160.774c0,0,6.731-1.246,9.224,0.499c2.493,1.745,4.238,15.208,2.742,15.706c-1.496,0.499-3.74,2.992-4.487-0.748
				C338.788,172.491,332.057,160.774,332.057,160.774z"/>
			<path style="fill:#FFFFFF;stroke:#263238;stroke-linecap:round;stroke-linejoin:round;stroke-miterlimit:10;" d="
				M325.326,163.018c0,0,7.23,14.21,9.473,14.709c2.244,0.499,4.737-0.499,4.737-1.496c0-0.997-5.235-14.21-7.479-15.457
				c-2.244-1.246-6.98-0.249-7.479,0.499"/>
			<path style="fill:#FFFFFF;stroke:#263238;stroke-linecap:round;stroke-linejoin:round;stroke-miterlimit:10;" d="
				M316.351,169.001c0,0,14.21,7.23,13.961,7.978c-0.249,0.748-2.493,1.745-4.737,1.745c-2.244,0-11.219-3.74-12.465-4.238
				C311.863,173.987,314.606,169.749,316.351,169.001z"/>
		</g>
		<path style="fill:#92E3A9;stroke:#263238;stroke-linecap:round;stroke-linejoin:round;stroke-miterlimit:10;" d="M231.962,242.492
			l29.827,103.915l-2.405,23.573c0,0,27.903,11.546,62.06,6.254c34.157-5.292,66.871-37.525,66.871-37.525l-31.752-44.26
			c0,0-2.405-100.066-7.697-104.396c-5.292-4.33-62.608-14.559-77.489-7.279C256.497,190.054,229.556,216.514,231.962,242.492z"/>
		<g>
			<path style="fill:#263238;stroke:#263238;stroke-linecap:round;stroke-linejoin:round;stroke-miterlimit:10;" d="
				M406.301,437.341c-6.667-43.111-17.986-94.091-17.986-94.091l-128.931,31.271l-17.043,62.82H406.301z"/>
			<path style="opacity:0.41;" d="M231.962,242.492l29.827,103.915l-2.405,23.573c0,0,27.903,11.546,62.06,6.254
				c34.157-5.292,66.871-37.525,66.871-37.525l-31.752-44.26c0,0-2.405-100.066-7.697-104.396
				c-5.292-4.33-62.608-14.559-77.489-7.279C256.497,190.054,229.556,216.514,231.962,242.492z"/>
		</g>
		<path style="fill:#FFFFFF;stroke:#263238;stroke-linecap:round;stroke-linejoin:round;stroke-miterlimit:10;" d="M258.902,222.287
			c0,0,13.47,8.178,22.13,1.443s4.811-25.498,4.811-25.498l-13.471-22.13l-28.865,20.206L258.902,222.287z"/>
		<polygon style="fill:#263238;stroke:#263238;stroke-linecap:round;stroke-linejoin:round;stroke-miterlimit:10;" points="
			247.443,437.341 241.341,363.785 131.34,371.996 123.481,437.341 		"/>
		<g>
			<path style="fill:#92E3A9;stroke:#263238;stroke-linecap:round;stroke-linejoin:round;stroke-miterlimit:10;" d="M155.935,194.97
				c0,0-35.324,2.319-44.958,8.743c-9.635,6.423-49.961,61.912-49.961,61.912l28.547,20.697l24.622-20.697l26.524,106.372
				l110.001-8.211l-8.777-134.916c0,0-3.925-26.049-8.564-28.904c-4.639-2.855-21.767-6.423-21.767-6.423L155.935,194.97z"/>
			<path style="fill:none;stroke:#263238;stroke-linecap:round;stroke-linejoin:round;stroke-miterlimit:10;" d="M77.705,252.099
				c0,0,10.916,8.421,16.53,19.649"/>
			<path style="fill:none;stroke:#263238;stroke-linecap:round;stroke-linejoin:round;stroke-miterlimit:10;" d="M88.621,253.97
				c0,0,4.366,6.862,6.238,14.659"/>
			<g>
				
					<line style="fill:none;stroke:#263238;stroke-linecap:round;stroke-linejoin:round;stroke-miterlimit:10;" x1="231.873" y1="245.62" x2="217.115" y2="282.926"/>
				
					<line style="fill:none;stroke:#263238;stroke-linecap:round;stroke-linejoin:round;stroke-miterlimit:10;" x1="226.566" y1="280.29" x2="224.084" y2="291.535"/>
				
					<line style="fill:none;stroke:#263238;stroke-linecap:round;stroke-linejoin:round;stroke-miterlimit:10;" x1="231.053" y1="259.969" x2="227.899" y2="274.254"/>
			</g>
		</g>
		<path style="fill:#263238;stroke:#263238;stroke-linecap:round;stroke-linejoin:round;stroke-miterlimit:10;" d="M215.284,174.548
			c0,0,4.238,9.473,3.74,13.213c-0.499,3.74-9.972,17.202-6.233,27.423c3.74,10.221,14.958,12.465,14.958,15.208
			c0,2.742-9.474,7.479-6.731,13.961c2.742,6.482,13.712,7.729,13.462,10.72c-0.249,2.992-7.978-0.748-7.479,1.994
			c0.499,2.742,3.241,8.227,10.969,8.975c7.728,0.748,13.712-3.74,14.21-8.975c0.499-5.235-2.742-4.986-0.499-7.728
			c2.244-2.742,11.717-17.95,11.219-21.939c-0.499-3.989-10.471-29.169-10.471-29.169l18.947-15.457c0,0,3.49,18.698,7.978,23.435
			c4.487,4.737,18.698,10.72,25.429,6.98c6.731-3.74,20.443-24.93,18.448-31.163c-1.994-6.233-9.473-9.972-13.961-11.967
			c-4.487-1.994-6.482-3.989-6.482-6.482s0-22.188-6.98-29.418c-6.98-7.23-20.692-5.983-23.435-6.731
			c-2.742-0.748-12.964-12.964-29.168-11.717c-16.205,1.247-22.687,8.227-27.174,18.199
			C211.544,143.883,207.555,159.091,215.284,174.548z"/>
		<g>
			<path style="fill:#FFFFFF;stroke:#263238;stroke-linecap:round;stroke-linejoin:round;stroke-miterlimit:10;" d="
				M229.743,140.393c0,0-7.978,16.454-8.476,20.194c-0.499,3.74,8.227,26.426,10.72,30.415c2.493,3.989,20.942,10.221,23.933,9.474
				c2.992-0.748,6.233-1.496,8.975-3.989c2.742-2.493,11.717-12.465,11.468-20.443c-0.249-7.978-12.465-28.171-12.465-28.171
				S236.474,147.623,229.743,140.393z"/>
			<path style="fill:#FFFFFF;stroke:#263238;stroke-linecap:round;stroke-linejoin:round;stroke-miterlimit:10;" d="
				M267.381,151.803c0,0,0.548-5.797,3.539-4.55c2.992,1.247,4.034,5.863,3.286,9.354c-0.748,3.49-1.517,1.011-1.517,1.011
				L267.381,151.803z"/>
			<path style="fill:none;stroke:#263238;stroke-linecap:round;stroke-linejoin:round;stroke-miterlimit:10;" d="M245.449,177.788
				c0,0,2.992,1.994,4.986,0.748c1.994-1.247,3.49-4.487,3.49-4.487"/>
			<path style="fill:none;stroke:#263238;stroke-linecap:round;stroke-linejoin:round;stroke-miterlimit:10;" d="M244.701,184.769
				c0,0,3.989,2.992,9.723,0.748c5.734-2.244,6.98-6.98,6.98-8.975"/>
			<path style="fill:#FFFFFF;stroke:#263238;stroke-linecap:round;stroke-linejoin:round;stroke-miterlimit:10;" d="M252.43,161.833
				c0,0,5.983,2.992,8.726-5.485"/>
			<path style="fill:#FFFFFF;stroke:#263238;stroke-linecap:round;stroke-linejoin:round;stroke-miterlimit:10;" d="M230.74,172.802
				c0,0,7.23,1.995,8.227-4.238"/>
			<path style="fill:none;stroke:#263238;stroke-linecap:round;stroke-linejoin:round;stroke-miterlimit:10;" d="M225.754,168.814
				c2.244-4.986,12.714-6.233,12.714-6.233s4.238,3.49,5.734,6.731"/>
			<path style="fill:none;stroke:#263238;stroke-linecap:round;stroke-linejoin:round;stroke-miterlimit:10;" d="M247.194,158.343
				c0,0,3.74-6.98,12.964-5.983"/>
		</g>
		<path style="fill:#92E3A9;stroke:#263238;stroke-linecap:round;stroke-linejoin:round;stroke-miterlimit:10;" d="M55.153,281.139
			c0,0-3.423-5.42-2.853-7.988c0.571-2.568,8.273-13.408,12.267-15.12c3.994-1.712,12.476-0.285,18.752,3.424
			c6.276,3.709,8.065,10.27,8.92,15.405c0.856,5.135,2.853,6.561,1.426,9.985c-1.426,3.423-2.282,5.706-5.706,7.702
			c-3.423,1.997-13.979-9.414-23.393-11.411C55.153,281.139,55.153,281.139,55.153,281.139z"/>
		<path style="fill:#92E3A9;stroke:#263238;stroke-linecap:round;stroke-linejoin:round;stroke-miterlimit:10;" d="M165.57,183.037
			c0,0-9.907-2.359-11.086-1.651c-1.179,0.708-11.938,13.938-11.938,14.646c0,0.708,12.881,21.443,15.24,23.566
			c2.359,2.123,6.133,4.953,6.133,4.953l8.492-5.661l14.86,1.415l4.953-4.953l11.086,10.143c0,0,1.415-21.229-0.943-26.182
			c-2.359-4.953-22.172-14.624-26.182-16.275C172.174,181.386,165.57,183.037,165.57,183.037z"/>
		<polygon style="fill:#263238;stroke:#263238;stroke-linecap:round;stroke-linejoin:round;stroke-miterlimit:10;" points="
			159.201,191.764 155.671,186.425 161.404,185.643 		"/>
		<path style="fill:#FFFFFF;stroke:#263238;stroke-linecap:round;stroke-linejoin:round;stroke-miterlimit:10;" d="M167.221,169.592
			l-8.02,22.172c0,0,7.076,12.973,15.568,17.691c8.492,4.717,11.558,5.897,11.558,5.897l10.143-16.275L167.221,169.592z"/>
		<polygon style="fill:#263238;stroke:#263238;stroke-linecap:round;stroke-linejoin:round;stroke-miterlimit:10;" points="
			175.986,192.099 189.582,207.685 195.883,201.384 		"/>
		<g>
			<path style="fill:#FFFFFF;stroke:#263238;stroke-linecap:round;stroke-linejoin:round;stroke-miterlimit:10;" d="
				M195.842,213.813c0,0,5.991,7.417,7.702,13.408c1.712,5.991,0.571,9.129,2.282,11.696c1.712,2.568,9.7,5.991,9.985,7.988
				c0.285,1.997-4.279,6.276-4.279,6.276s0.856,16.546-0.856,21.396c-1.712,4.85-7.703,2.853-10.27,3.138
				c-2.567,0.285-8.844,10.27-8.844,10.27l-27.387-9.699l1.712-9.699l-8.844-13.123c0,0,0.285-12.267,7.417-16.546
				c7.132-4.279,12.838-12.838,16.261-17.117C184.145,217.522,189.28,207.822,195.842,213.813z"/>
			<path style="fill:#263238;stroke:#263238;stroke-linecap:round;stroke-linejoin:round;stroke-miterlimit:10;" d="
				M187.568,273.151l7.09,10.6l4.225-5.088c0,0-2.449-2.663-4.412-3.317C192.509,274.692,187.568,273.151,187.568,273.151z"/>
			<path style="fill:#263238;stroke:#263238;stroke-linecap:round;stroke-linejoin:round;stroke-miterlimit:10;" d="M149.056,215.81
				c0,0,5.706-5.706,16.261-7.703c10.555-1.997,24.534-6.276,28.813-3.994c4.279,2.282,3.138,4.279,1.712,9.699
				c-1.426,5.42-8.558,13.123-9.985,13.693c-1.426,0.571-2.853,4.564-3.994,6.276c-1.141,1.712-6.847,5.706-6.847,5.706l3.709,5.706
				c0,0-1.712,0.856-3.709,0.856c-1.997,0-2.853-3.423-6.847-3.138c-3.994,0.285-7.988,5.135-5.135,10.841
				c2.853,5.706,11.697,6.562,11.697,6.562s-4.85,6.847-8.844,8.273c-3.994,1.426-18.543-1.141-24.249-11.697
				C135.933,246.335,135.077,222.372,149.056,215.81z"/>
			<path style="fill:none;stroke:#263238;stroke-width:2;stroke-linecap:round;stroke-linejoin:round;stroke-miterlimit:10;" d="
				M202.403,230.074c0,0-5.991-3.423-6.847,4.279"/>
			<path style="fill:#263238;" d="M202.926,240.676c0.518,2.063,0.256,3.906-0.584,4.117c-0.84,0.211-1.941-1.291-2.459-3.354
				c-0.518-2.063-0.256-3.906,0.584-4.117C201.308,237.111,202.409,238.613,202.926,240.676z"/>
			<path style="fill:none;stroke:#263238;stroke-linecap:round;stroke-linejoin:round;stroke-miterlimit:10;" d="M200.691,256.605
				c0,0,2.567,3.138,9.699,2.853"/>
			<path style="fill:#FFFFFF;stroke:#263238;stroke-linecap:round;stroke-linejoin:round;stroke-miterlimit:10;" d="
				M180.151,264.022c0,0,0.57,6.561,7.417,9.129c6.847,2.568,12.838,4.565,12.838,4.565"/>
		</g>
		<path style="fill:#263238;stroke:#263238;stroke-linecap:round;stroke-linejoin:round;stroke-miterlimit:10;" d="M147.352,437.341
			c-0.883-3.761-4.483-19.55-4.295-26.118c0.214-7.482-0.214-32.066,5.558-46.175c5.772-14.109,7.696-55.367,7.696-55.367
			s-5.772-4.917-14.537-11.33c-8.765-6.413-25.439-10.689-28.432-10.261c-2.993,0.427-12.826,2.993-12.826,2.993
			s-10.903,4.275-15.819,18.384c-4.917,14.109-10.261,76.531-10.261,76.531s-20.089,12.913-27.245,51.343H147.352z"/>
		<g>
			<path style="fill:#FFFFFF;stroke:#263238;stroke-linecap:round;stroke-linejoin:round;stroke-miterlimit:10;" d="M142.415,288.09
				c0,0-2.138,6.627-3.42,13.681c-1.283,7.055,1.283,11.544-0.641,11.116c-1.924-0.428-8.979-10.475-14.323-18.385
				c-5.344-7.91-4.703-23.729-4.703-25.867c0-2.138,1.71-3.42,2.565-3.207C122.748,265.644,142.415,288.09,142.415,288.09z"/>
			<path style="fill:#263238;stroke:#263238;stroke-linecap:round;stroke-linejoin:round;stroke-miterlimit:10;" d="
				M129.036,282.349c0,0,1.922,5.241,5.94,9.609c4.018,4.368,4.018,4.368,4.018,4.368l3.42-8.236L129.036,282.349z"/>
			<g>
				<path style="fill:#6B6B6B;stroke:#263238;stroke-linecap:round;stroke-linejoin:round;stroke-miterlimit:10;" d="
					M163.793,242.984c0,0,3.42-0.641,7.268-5.131s2.352-10.475,2.352-10.475s4.917,5.131,4.275,1.283
					c-0.641-3.848,0-7.055-10.261-11.33c-10.261-4.275-14.323-3.848-14.323-3.848s-14.537-9.834-31.639-5.344
					c-17.102,4.489-21.591,28.218-22.232,33.349c-0.641,5.13-12.613,27.149-11.33,36.555c1.283,9.406,13.04,19.881,21.805,20.95
					c8.765,1.069,20.522-1.496,18.171-2.993c-2.352-1.496-5.344-5.986-5.344-5.986s6.627,3.42,3.42-1.069
					c-3.207-4.489-6.627-20.309-6.627-20.309l2.352-18.384l26.508-15.819L163.793,242.984z"/>
				<path style="fill:#FFFFFF;stroke:#263238;stroke-linecap:round;stroke-linejoin:round;stroke-miterlimit:10;" d="
					M118.259,248.542l-3.42,4.917c0,0-3.848-5.558-1.283-7.268C116.121,244.48,118.259,248.542,118.259,248.542z"/>
				<g>
					<path style="fill:#FFFFFF;stroke:#263238;stroke-linecap:round;stroke-linejoin:round;stroke-miterlimit:10;" d="
						M163.793,235.502c0,0,2.565,12.613,2.138,16.674c-0.428,4.062-2.138,5.986-2.352,8.765c-0.214,2.779,1.71,7.482-1.283,14.109
						c-2.993,6.627-13.087,13.315-15.439,14.811c-2.352,1.496-8.076,0.367-14.062-4.123c-5.986-4.489-12.826-14.964-13.468-17.102
						c-0.641-2.138,2.352-18.384,2.352-18.384s9.834-9.62,15.819-14.323c5.986-4.703,7.482-11.33,7.482-11.33L163.793,235.502z"/>
					<path style="fill:#FFFFFF;stroke:#263238;stroke-linecap:round;stroke-linejoin:round;stroke-miterlimit:10;" d="
						M155.028,254.1c0,0-3.207,4.703-3.207,7.054c0,2.352,2.138,8.551,1.069,9.834c-1.069,1.283-6.413,1.71-7.91,0"/>
					<path style="fill:#FFFFFF;stroke:#263238;stroke-linecap:round;stroke-linejoin:round;stroke-miterlimit:10;" d="
						M138.14,272.912c0,0,3.848,5.986,11.758,3.634"/>
					<path style="fill:#FFFFFF;stroke:#263238;stroke-linecap:round;stroke-linejoin:round;stroke-miterlimit:10;" d="
						M131.727,256.024c0,0,3.848,4.917,9.833,2.352"/>
					<path style="fill:none;stroke:#263238;stroke-width:2;stroke-linecap:round;stroke-linejoin:round;stroke-miterlimit:10;" d="
						M144.767,250.894c0,0-5.13-4.703-14.323-0.428"/>
					<path style="fill:none;stroke:#263238;stroke-width:2;stroke-linecap:round;stroke-linejoin:round;stroke-miterlimit:10;" d="
						M157.166,252.818c0,0,4.489-2.779,7.268,0.855"/>
					<path style="fill:#FFFFFF;stroke:#263238;stroke-linecap:round;stroke-linejoin:round;stroke-miterlimit:10;" d="
						M154.173,260.086c0,0,4.917,4.062,9.406,0.855"/>
				</g>
			</g>
		</g>
		<path style="fill:#FFFFFF;stroke:#263238;stroke-linecap:round;stroke-linejoin:round;stroke-miterlimit:10;" d="M301.497,251.346
			c0,0,0.84,19.047,2.521,28.011c1.681,8.963,1.4,16.526,1.4,16.526l-26.649-13.988L301.497,251.346z"/>
		<polygon style="fill:#263238;stroke:#263238;stroke-linecap:round;stroke-linejoin:round;stroke-miterlimit:10;" points="
			288.812,276.815 303.024,275.331 301.539,258.786 		"/>
		<g>
			<path style="fill:#6B6B6B;stroke:#263238;stroke-linecap:round;stroke-linejoin:round;stroke-miterlimit:10;" d="
				M260.708,206.055c0,0-11.654-7.094-12.921-3.547s4.814,10.641,4.814,10.641s-6.081-1.013-5.827,2.027
				c0.253,3.04,3.294,2.28,3.294,2.28s-7.854,5.827-6.841,10.134c1.014,4.307,4.307,1.774,4.307,1.774s0.253,3.294,3.294,3.8
				c3.04,0.507,5.067-0.253,5.067-0.253s12.921-9.121,19.762-9.121c6.841,0,9.628,3.547,14.441,9.628
				c4.814,6.081,14.695,9.881,14.695,9.881s4.83-22.629,1.908-28.416c-2.921-5.787-24.457-15.668-34.084-15.414
				c-9.628,0.253-9.374,5.32-9.374,5.32L260.708,206.055z"/>
			<path style="fill:#FFFFFF;stroke:#263238;stroke-linecap:round;stroke-linejoin:round;stroke-miterlimit:10;" d="
				M254.757,222.143c0,0-3.071,13.681-2.234,17.87c0.838,4.188,3.63,13.123,3.63,14.798s-0.279,5.584,1.954,10.61
				c2.234,5.026,13.402,17.311,20.662,16.474c7.26-0.838,20.103-10.61,22.616-17.59c2.513-6.98,0.279-22.616,0-26.525
				c-0.279-3.909-10.889-6.143-11.168-8.935c-0.279-2.792-0.279-9.772-2.513-12.006s-12.006-3.351-16.474-0.838
				c-4.467,2.513-5.584,4.188-8.656,4.188C259.503,220.189,254.757,222.143,254.757,222.143z"/>
			<path style="fill:#FFFFFF;stroke:#263238;stroke-linecap:round;stroke-linejoin:round;stroke-miterlimit:10;" d="
				M265.366,249.506c0,0-1.675,8.935,0.838,9.772c2.513,0.838,6.422,0,6.422,0"/>
			<path style="fill:#FFFFFF;stroke:#263238;stroke-linecap:round;stroke-linejoin:round;stroke-miterlimit:10;" d="
				M268.996,264.863c0.521,1.635,12.542,0.884,13.961-9.493"/>
			<path style="fill:#FFFFFF;stroke:#263238;stroke-linecap:round;stroke-linejoin:round;stroke-miterlimit:10;" d="
				M274.077,245.913c0,0,6.55,1.847,9.741-3.023"/>
			<path style="fill:#FFFFFF;stroke:#263238;stroke-linecap:round;stroke-linejoin:round;stroke-miterlimit:10;" d="
				M257.787,251.455c0,0,3.527,1.847,6.046-2.351"/>
			<path style="fill:none;stroke:#263238;stroke-width:2;stroke-linecap:round;stroke-linejoin:round;stroke-miterlimit:10;" d="
				M269.711,236.676c0,0,4.199-5.878,12.932-3.023"/>
			<path style="fill:none;stroke:#263238;stroke-width:2;stroke-linecap:round;stroke-linejoin:round;stroke-miterlimit:10;" d="
				M262.489,239.027c0,0-6.046-1.679-8.061,3.191"/>
			<path style="fill:#FFFFFF;stroke:#263238;stroke-linecap:round;stroke-linejoin:round;stroke-miterlimit:10;" d="
				M262.825,241.546c0,0,2.497,3.46,2.519,5.71"/>
		</g>
		<polygon style="fill:#FFFFFF;stroke:#263238;stroke-linecap:round;stroke-linejoin:round;stroke-miterlimit:10;" points="
			320.371,268.213 331.819,277.148 351.364,263.746 341.312,252.019 		"/>
		<polygon style="fill:#263238;stroke:#263238;stroke-linecap:round;stroke-linejoin:round;stroke-miterlimit:10;" points="
			332.885,261.565 325.928,271.817 320.371,268.213 		"/>
		<g>
			<path style="fill:#454545;stroke:#263238;stroke-linecap:round;stroke-linejoin:round;stroke-miterlimit:10;" d="M309.77,193.615
				c0,0-10.305,5.262-9.647,11.84c0.658,6.578,6.577,9.428,6.577,9.428l11.401-12.497L309.77,193.615z"/>
			<path style="fill:#FFFFFF;stroke:#263238;stroke-linecap:round;stroke-linejoin:round;stroke-miterlimit:10;" d="
				M312.181,201.508c0,0-9.428,14.251-10.524,18.636c-1.096,4.385-5.043,19.075-3.727,24.995c1.316,5.92,6.797,21.925,8.77,23.46
				c1.973,1.535,5.701,3.508,7.893,2.85c2.193-0.658,21.268-10.963,23.241-12.278c1.973-1.315,8.332-16.005,8.332-16.005
				l2.412-4.604l-34.204-38.808L312.181,201.508z"/>
			<path style="fill:#FFFFFF;stroke:#263238;stroke-linecap:round;stroke-linejoin:round;stroke-miterlimit:10;" d="
				M314.154,226.941c0,0,1.754,7.674,0.658,10.524"/>
			<path style="fill:#FFFFFF;stroke:#263238;stroke-linecap:round;stroke-linejoin:round;stroke-miterlimit:10;" d="M309.55,245.139
				c0,0,0,4.604,6.578,4.385"/>
			<path style="fill:#FFFFFF;stroke:#263238;stroke-linecap:round;stroke-linejoin:round;stroke-miterlimit:10;" d="
				M304.288,251.278c0,0,3.727,4.385,8.77,5.043c5.043,0.658,9.428-1.535,9.428-1.535"/>
			<path style="fill:#FFFFFF;stroke:#263238;stroke-linecap:round;stroke-linejoin:round;stroke-miterlimit:10;" d="
				M322.925,237.465c0,0,5.701,5.043,11.62,2.193"/>
			<path style="fill:#FFFFFF;stroke:#263238;stroke-linecap:round;stroke-linejoin:round;stroke-miterlimit:10;" d="M323.802,227.38
				c0,0,9.209,2.631,12.278,7.674"/>
			<path style="fill:#FFFFFF;stroke:#263238;stroke-linecap:round;stroke-linejoin:round;stroke-miterlimit:10;" d="
				M301.438,229.791c0,0,2.193,6.358,10.086,4.166"/>
			<path style="fill:#FFFFFF;stroke:#263238;stroke-linecap:round;stroke-linejoin:round;stroke-miterlimit:10;" d="M312.62,225.626
				c0,0-5.043-5.701-10.743-2.85"/>
		</g>
		<path style="fill:#6B6B6B;stroke:#263238;stroke-linecap:round;stroke-linejoin:round;stroke-miterlimit:10;" d="M343.296,364.628
			c0.838,0.558,9.493,24.012,9.493,26.804c0,2.343-3.145,35.344-4.157,45.909h109.862c-0.08-2.048-0.214-4.846-0.442-8.494
			c-0.558-8.935-9.772-44.116-9.772-44.116l-34.902-64.498l-71.199,13.123l-12.285,11.448c0,0,2.234,7.259,5.584,11.448
			C338.828,360.44,342.458,364.069,343.296,364.628z"/>
		<path style="fill:#263238;stroke:#263238;stroke-linecap:round;stroke-linejoin:round;stroke-miterlimit:10;" d="M351.462,402.956
			c7.618,3.504,22.115,7.795,44.576,5.142c26.92-3.179,44.817-17.615,51.882-24.388l-34.85-64.402l-71.199,13.123l-12.285,11.448
			c0,0,2.234,7.259,5.584,11.448c3.35,4.188,6.98,7.818,7.818,8.376c0.838,0.559,9.493,24.012,9.493,26.804
			C352.481,391.373,352.053,396.412,351.462,402.956z"/>
		<polygon style="fill:#263238;stroke:#263238;stroke-linecap:round;stroke-linejoin:round;stroke-miterlimit:10;" points="
			316.191,437.341 315.182,433.431 225.105,417.054 217.945,437.341 		"/>
		<g>
			<path style="fill:#6B6B6B;stroke:#263238;stroke-linecap:round;stroke-linejoin:round;stroke-miterlimit:10;" d="
				M303.177,290.841c0,0-10.162-6.689-24.409-8.947c-14.246-2.258-24.89,9.227-28.252,17.91
				c-3.361,8.683-12.045,50.699-12.045,50.699l-15.406,66.105c0,0,4.202,8.123,42.576,15.686c38.375,7.563,53.5,2.521,53.5,2.521
				s8.123-112.603,6.723-121.286C324.465,304.847,303.177,290.841,303.177,290.841z"/>
			<path style="fill:none;stroke:#263238;stroke-linecap:round;stroke-linejoin:round;stroke-miterlimit:10;" d="M300.294,429.321
				c4.842,0.286,9.903,0.424,15.175,0.377"/>
			<path style="fill:none;stroke:#263238;stroke-linecap:round;stroke-linejoin:round;stroke-miterlimit:10;" d="M247.757,419.161
				c11.209,3.914,27.114,8.078,47.076,9.767"/>
			<path style="fill:none;stroke:#263238;stroke-linecap:round;stroke-linejoin:round;stroke-miterlimit:10;" d="M228.664,410.785
				c0,0,5.037,3.053,14.536,6.706"/>
		</g>
		<g>
			<path style="fill:#92E3A9;stroke:#263238;stroke-linecap:round;stroke-linejoin:round;stroke-miterlimit:10;" d="M349.13,258.999
				c0,0-12.288,5.162-22.617,19.054c-10.33,13.893-29.189,67.072-29.189,67.072s-31.957-15.206-34.191-16.602
				c-2.234-1.396-8.376-3.909-10.052-3.909c-1.675,0-15.674,4.124-16.511,6.917c-0.838,2.792,12,12.485,24.129,20.571
				c13.952,9.301,48.949,30.298,51.158,29.648c9.883-2.907,26.384-39.824,26.384-39.824s18.986,22.058,22.895,42.44
				c3.909,20.382,3.351,44.116,3.351,44.116s27.532,7.318,54.336-7.201c26.804-14.519,39.531-21.51,39.531-21.51
				s-21.551-53.378-40.816-79.624c-19.266-26.246-21.259-39.262-39.408-53.502C359.98,252.405,349.13,258.999,349.13,258.999z"/>
			<path style="fill:#FFFFFF;stroke:#263238;stroke-linecap:round;stroke-linejoin:round;stroke-miterlimit:10;" d="M236.57,331.531
				c-0.399,1.331,2.312,4.231,6.569,7.776l9.942-14.693C251.406,324.614,237.408,328.739,236.57,331.531z"/>
			<path style="fill:none;stroke:#263238;stroke-linecap:round;stroke-linejoin:round;stroke-miterlimit:10;" d="M370.145,344.626
				c3.434,0.241,6.64,0.397,9.19,0.397"/>
			<path style="fill:none;stroke:#263238;stroke-linecap:round;stroke-linejoin:round;stroke-miterlimit:10;" d="M343.976,341.975
				c0,0,10.122,1.281,20.315,2.182"/>
			<path style="fill:none;stroke:#263238;stroke-linecap:round;stroke-linejoin:round;stroke-miterlimit:10;" d="M346.109,345.023
				c0,0,18.899,9.449,24.081,10.059"/>
			<path style="fill:none;stroke:#263238;stroke-linecap:round;stroke-linejoin:round;stroke-miterlimit:10;" d="M297.323,345.125
				c0,0-0.687,5.414,2.242,10.54"/>
			<path style="fill:none;stroke:#263238;stroke-linecap:round;stroke-linejoin:round;stroke-miterlimit:10;" d="M294.805,353.102
				c0,0,2.197,6.957,6.591,9.886"/>
			<path style="fill:none;stroke:#263238;stroke-linecap:round;stroke-linejoin:round;stroke-miterlimit:10;" d="M439.434,401.813
				c7.82-3.758,12.79-6.062,12.79-6.062"/>
			<path style="fill:none;stroke:#263238;stroke-linecap:round;stroke-linejoin:round;stroke-miterlimit:10;" d="M386.184,423.714
				c6.748-0.767,14.818-2.745,23.365-7.109c8.442-4.311,16.485-8.289,23.266-11.589"/>
			<path style="fill:none;stroke:#263238;stroke-linecap:round;stroke-linejoin:round;stroke-miterlimit:10;" d="M367.359,422.909
				c0,0,5.253,1.444,13.503,1.19"/>
		</g>
		<path style="fill:#454545;stroke:#263238;stroke-linecap:round;stroke-linejoin:round;stroke-miterlimit:10;" d="M309.77,193.615
			c0,0,1.973,13.594,10.963,21.706c8.989,8.112,14.251,12.059,14.251,12.059l6.797,18.856c0,0-5.427,19.519,7.948,27.412
			c13.374,7.893,23.625,4.818,23.625,4.818s20.313,7.631,39.657,35.268c1.677,2.397,14.937-16.631,12.087-30.444
			c-2.85-13.813-26.749-21.706-26.749-21.706s10.305-18.198,2.412-25.653c-7.893-7.455-27.845-5.92-27.845-5.92
			s4.634-27.894-15.128-40.343c-17.495-11.02-35.519-10.963-39.466-10.743C314.374,179.144,306.919,184.625,309.77,193.615z"/>
		<g>
			<g>
				<path style="fill:#FFFFFF;stroke:#263238;stroke-linecap:round;stroke-linejoin:round;stroke-miterlimit:10;" d="
					M356.763,280.385c0,0,4.431-6.299,4.333-7.265c-0.098-0.965-4.484-3.835-4.641-5.379c-0.157-1.544,1.676-2.705,1.152-4.017
					c-0.523-1.312-2.979-4.378-0.355-5.424c2.624-1.046,4.367,2.677,4.367,2.677s-2.014-4.476,0.031-5.463
					c2.045-0.987,5.69-3.502,7.024-1.882c1.334,1.62,2.053,4.862,2.053,4.862s4.266-0.238,5.581,1.189
					c1.315,1.427,1.471,2.971,1.762,3.916c0.291,0.945,2.358,2.101,2.862,3.22c0.503,1.119,0.834,2.451,0.951,3.609
					c0.117,1.158,0.834,2.45,0.951,3.609c0.117,1.158-1.774,1.74-5.225,4.235c-3.452,2.495-3.95,5.276-3.95,5.276L356.763,280.385z"
					/>
				
					<line style="fill:#FFFFFF;stroke:#263238;stroke-linecap:round;stroke-linejoin:round;stroke-miterlimit:10;" x1="361.62" y1="260.978" x2="363.623" y2="257.655"/>
				
					<line style="fill:#FFFFFF;stroke:#263238;stroke-linecap:round;stroke-linejoin:round;stroke-miterlimit:10;" x1="361.097" y1="273.121" x2="364.314" y2="268.31"/>
				
					<line style="fill:#FFFFFF;stroke:#263238;stroke-linecap:round;stroke-linejoin:round;stroke-miterlimit:10;" x1="374.873" y1="282.059" x2="376.157" y2="275.493"/>
			</g>
			<path style="fill:#6B6B6B;stroke:#263238;stroke-linecap:round;stroke-linejoin:round;stroke-miterlimit:10;" d="
				M265.035,325.919c0,0,56.786,16.659,64.551,17.961c7.765,1.302,19.529,2.703,21.49,0.182
				c1.961-2.521,24.369-56.862,24.649-59.103c0.28-2.241-3.641-7.843-9.244-8.683c-5.602-0.84-10.084,2.521-10.924,4.202
				c-0.84,1.681-15.406,28.571-15.406,28.571s-42.296-24.089-52.66-25.49c-10.364-1.4-24.089-4.482-31.372,9.804"/>
		</g>
		<g>
			<path style="fill:#263238;stroke:#263238;stroke-linecap:round;stroke-linejoin:round;stroke-miterlimit:10;" d="
				M218.642,139.636c0,0,4.246,0.708,5.661-3.774c1.415-4.482-7.784-13.209-15.096-14.86c-7.312-1.651-27.163-3.77-35.419,1.184
				c-8.256,4.953-10.614,9.671-10.85,13.917c-0.236,4.246-0.199,22.168-0.199,22.168s5.425,4.246,7.312,4.482
				c1.887,0.236,3.066,0,3.774-2.359c0.708-2.359,0.708-4.717,1.651-5.425c0.943-0.708,5.897-2.359,6.369-5.897
				c0.472-3.538-2.359-8.963-0.472-10.614c1.887-1.651,17.315,0.083,25.335,1.97C214.728,142.314,218.642,139.636,218.642,139.636z"
				/>
			<path style="fill:#FFFFFF;stroke:#263238;stroke-linecap:round;stroke-linejoin:round;stroke-miterlimit:10;" d="
				M169.108,160.865c0,0-4.953-5.661-8.02-4.482c-3.066,1.179-1.415,12.501,0,14.86c1.415,2.359,5.897,3.066,5.897,3.066
				s2.595,11.558,4.953,13.917c2.359,2.359,17.691,16.275,25.71,15.804c8.02-0.472,15.332-11.322,16.511-14.86
				c1.179-3.538,3.302-25.946,3.302-25.946s2.595-5.425,2.595-7.312c0-1.887-1.179-14.624-1.415-16.275
				c-0.236-1.651-7.767,0.707-22.998-4.76c-11.578-4.156-19.931,1.694-19.223,5.704s3.066,5.661,1.651,7.784
				c-1.415,2.123-5.661,5.189-5.661,5.189s0.236,3.774,0,4.953C172.174,159.685,169.108,160.865,169.108,160.865z"/>
			<path style="fill:none;stroke:#263238;stroke-linecap:round;stroke-linejoin:round;stroke-miterlimit:10;" d="M211.33,159.214
				l-4.01,6.84c0,0,2.359,10.614,1.179,12.501c-1.179,1.887-8.02,0-8.963-0.236"/>
			<path style="fill:none;stroke:#263238;stroke-linecap:round;stroke-linejoin:round;stroke-miterlimit:10;" d="M184.676,176.433
				c0,0,4.243,6.381,11.908,8.95c4.966,1.664,9.556,0.485,9.556,0.485"/>
			<path style="fill:none;stroke:#263238;stroke-width:2;stroke-linecap:round;stroke-linejoin:round;stroke-miterlimit:10;" d="
				M201.423,158.742c0,0-5.661-3.066-10.143-2.83c-4.482,0.236-7.784,2.595-7.784,2.595"/>
			<path style="fill:none;stroke:#263238;stroke-width:2;stroke-linecap:round;stroke-linejoin:round;stroke-miterlimit:10;" d="
				M213.217,157.798c0,0,2.359-0.943,4.953-0.236"/>
			<path style="fill:#263238;" d="M196.453,164.905c-0.212,1.68-1.327,2.923-2.49,2.776c-1.163-0.147-1.934-1.628-1.722-3.308
				c0.212-1.68,1.327-2.923,2.49-2.776C195.894,161.743,196.665,163.225,196.453,164.905z"/>
			<path style="fill:#263238;" d="M215.712,165.179c-0.22,1.74-1.269,3.042-2.343,2.906c-1.074-0.136-1.767-1.657-1.548-3.397
				c0.22-1.741,1.269-3.042,2.343-2.906C215.239,161.918,215.932,163.439,215.712,165.179z"/>
		</g>
		<g>
			<path style="fill:#92E3A9;stroke:#263238;stroke-linecap:round;stroke-linejoin:round;stroke-miterlimit:10;" d="
				M136.876,397.353c-0.583,4.955-3.011,33.014-3.612,39.988h83.84c1.085-20.358-4.865-99.594-4.865-99.594
				s24.348-1.852,26.545-2.218c2.196-0.366,10.25-1.647,13.178-3.112c2.928-1.464,49.397-39.513,49.397-39.513
				s6.772,1.464,9.151,1.464c2.379,0,12.08-0.732,12.08-0.732s3.844,1.647,6.772,2.745c2.928,1.098,3.661-0.732,3.661-0.732
				l-10.25-5.857l5.857,0.915l8.053,2.562c0,0,4.21,1.647,4.759,0.549c0.549-1.098-5.491-3.843-6.589-4.393
				s-7.321-2.928-7.321-2.928s7.664-0.223,10.184,0.706c0.687,0.253,5.191,2.222,6.106,2.405c0.915,0.183,3.111,0.183,3.294-0.915
				c0.183-1.098-4.576-3.478-6.955-4.393s-10.25-2.745-9.151-2.745c1.098,0,11.58,1.887,12.861,1.887
				c1.281,0,2.696-0.24,3.062-1.155c0.366-0.915-1.464-1.281-4.393-2.379c-2.928-1.098-13.361-1.856-16.028-1.856
				s-22.669,4.334-28.003,6.001c-5.334,1.667-52.925,22.517-52.925,22.517l-47.37-15.895c0,0-9.334-10.001-23.669-13.668
				s-16.002-1-22.669,7.001s-17.002,23.669-17.002,37.337S137.543,391.686,136.876,397.353z"/>
			<g>
				<path style="fill:#FFFFFF;stroke:#263238;stroke-linecap:round;stroke-linejoin:round;stroke-miterlimit:10;" d="
					M322.59,293.637c0,0,3.844,1.647,6.772,2.745c2.928,1.098,3.661-0.732,3.661-0.732l-10.25-5.857l5.857,0.915l8.053,2.562
					c0,0,4.21,1.647,4.759,0.549c0.549-1.098-5.491-3.843-6.589-4.393s-7.321-2.928-7.321-2.928s7.664-0.223,10.184,0.706
					c0.687,0.253,5.191,2.222,6.106,2.405c0.915,0.183,3.111,0.183,3.294-0.915c0.183-1.098-4.576-3.478-6.955-4.393
					s-10.25-2.745-9.151-2.745c1.098,0,11.58,1.887,12.861,1.887c1.281,0,2.696-0.24,3.062-1.155
					c0.366-0.915-1.464-1.281-4.393-2.379c-2.928-1.098-13.361-1.856-16.028-1.856s-22.669,4.334-28.003,6.001
					c-2.394,0.748-13.3,5.36-24.595,10.217l10.089,12.779c9.474-7.692,17.355-14.145,17.355-14.145s6.772,1.464,9.151,1.464
					C312.89,294.369,322.59,293.637,322.59,293.637z"/>
				
					<line style="fill:#FFFFFF;stroke:#263238;stroke-linecap:round;stroke-linejoin:round;stroke-miterlimit:10;" x1="331.01" y1="281.557" x2="325.748" y2="282.076"/>
				
					<line style="fill:#FFFFFF;stroke:#263238;stroke-linecap:round;stroke-linejoin:round;stroke-miterlimit:10;" x1="327.532" y1="286.499" x2="322.671" y2="285.496"/>
			</g>
			<path style="fill:none;stroke:#263238;stroke-linecap:round;stroke-linejoin:round;stroke-miterlimit:10;" d="M212.24,337.747
				c0,0-33.492,1.163-34.935,0.802"/>
			<path style="fill:none;stroke:#263238;stroke-linecap:round;stroke-linejoin:round;stroke-miterlimit:10;" d="M197.863,338.549
				c0,0-31.378,33.542-34.263,36.066"/>
			<path style="fill:none;stroke:#263238;stroke-linecap:round;stroke-linejoin:round;stroke-miterlimit:10;" d="M169.386,395.664
				c-1.915,2.658-3.644,4.641-5.065,5.641"/>
			<path style="fill:none;stroke:#263238;stroke-linecap:round;stroke-linejoin:round;stroke-miterlimit:10;" d="M198.224,341.435
				c0,0-15.324,33.622-26.484,50.777"/>
			<path style="fill:none;stroke:#263238;stroke-linecap:round;stroke-linejoin:round;stroke-miterlimit:10;" d="M187.087,286.206
				c-6.113-2.35-14.171-5.075-19.207-5.315c-8.988-0.428-13.695,4.28-15.621,7.918"/>
			<path style="fill:none;stroke:#263238;stroke-linecap:round;stroke-linejoin:round;stroke-miterlimit:10;" d="M195.484,289.664
				c0,0-1.53-0.686-3.924-1.674"/>
			<path style="fill:none;stroke:#263238;stroke-linecap:round;stroke-linejoin:round;stroke-miterlimit:10;" d="M195.859,377.087
				c-0.593,3.131-1.221,6.085-1.873,8.657"/>
			<path style="fill:none;stroke:#263238;stroke-linecap:round;stroke-linejoin:round;stroke-miterlimit:10;" d="M200.834,342.091
				c0,0-1.761,16.728-4.318,31.382"/>
			<path style="fill:none;stroke:#263238;stroke-linecap:round;stroke-linejoin:round;stroke-miterlimit:10;" d="M211.603,328.614
				c-2.539,1.279-4.838,2.323-6.703,2.992"/>
			<path style="fill:none;stroke:#263238;stroke-linecap:round;stroke-linejoin:round;stroke-miterlimit:10;" d="M243.632,309.565
				c0,0-15.978,10.486-28.58,17.251"/>
			<path style="fill:none;stroke:#263238;stroke-linecap:round;stroke-linejoin:round;stroke-miterlimit:10;" d="M204.9,326.042
				c0,0-13.063,6.752-20.329,9.629"/>
		</g>
		<g>
			<path style="fill:#FFFFFF;stroke:#263238;stroke-linecap:round;stroke-linejoin:round;stroke-miterlimit:10;" d="M145.35,360.272
				c0,0-11.121,6.037-26.056,11.121c-14.934,5.084-49.569,20.654-51.476,20.336c-1.907-0.318-4.766-3.495-1.907-18.747
				c2.86-15.252,8.897-46.392,12.71-56.242c3.813-9.85,7.308-17.159,14.299-19.383c6.991-2.224,12.392,4.766,12.392,4.766
				s3.495,6.037,2.86,12.392s-8.579,26.373-10.803,30.822c-2.224,4.448-7.626,16.205-7.626,16.205s26.373-3.495,37.812-6.673
				c11.439-3.177,14.934-7.626,14.934-7.626s4.449-7.944,5.402-9.215c0.953-1.271,6.673-6.037,7.944-7.626
				c1.271-1.589,3.495-7.944,4.766-6.037c1.271,1.906,1.271,3.495,0.318,4.766c-0.953,1.271-4.449,6.673-4.449,6.673
				s15.252-10.803,16.205-10.803c0.953,0,2.86,0.635,1.589,2.224c-1.271,1.589-13.028,11.121-13.028,11.121l17.794-6.355
				c0,0,3.813,0,1.906,2.224c-1.906,2.224-16.841,8.579-16.841,8.579s13.663-1.271,15.252-1.589c1.589-0.318,2.86,0.953,1.589,2.542
				c-1.271,1.589-16.523,3.813-16.523,3.813s10.908,1.728,13.451,2.152c0,0,0,1.554-0.848,1.695
				c-0.848,0.141-12.713,0.424-12.713,0.424s-4.661,3.673-8.899,5.227C151.168,358.613,145.35,360.272,145.35,360.272z"/>
			<path style="fill:#FFFFFF;stroke:#263238;stroke-linecap:round;stroke-linejoin:round;stroke-miterlimit:10;" d="M89.743,361.543
				c0,0-11.413,4.802-14.686,9.712"/>
		</g>
		<g>
			<path style="fill:#FFFFFF;stroke:#263238;stroke-linecap:round;stroke-linejoin:round;stroke-miterlimit:10;" d="M76.927,313.267
				c0,0,7.716-3.741,9.587-3.741c1.871,0,12.86,6.313,13.796,6.781c0.935,0.468,4.443-0.234,3.507,2.104
				c-0.935,2.338-2.806,4.209-6.079,3.975c-3.273-0.234-9.82-4.209-9.82-4.209s5.643,8.518,6.344,9.453
				c0.394,0.526,4.245,2.784,7.477,3.489c2.519,0.55,3.738-0.125,4.884,0.385c2.026,0.902,1.596,3.478-1.021,4.35
				c-1.6,0.533-2.243,0.125-2.243,0.125c-1.403,1.169-6.556,6.281-10.298,8.385c-3.741,2.104-3.862,1.201-8.539-0.202
				c-4.676-1.403-6.6-4.62-6.6-4.62s-0.152,3.355,1.485,4.29c1.637,0.935,5.274,2.908,5.445,4.785
				c0.165,1.815-7.548-0.453-8.25-1.155c-0.701-0.702-6.696-7.3-6.93-9.405c-0.234-2.104-7.636-14.9-8.645-17.777
				c-1.585-4.52-2.08-8.458-3.507-14.029c-1.671-6.522-5.612-25.954,0.234-32.969c5.846-7.015,17.144-3.408,23.382,1.403
				c5.981,4.613,8.184,11.925,7.95,16.367c-0.234,4.443-6.781,12.159-8.184,14.965C79.499,308.825,76.927,313.267,76.927,313.267z"
				/>
			<path style="fill:none;stroke:#263238;stroke-linecap:round;stroke-linejoin:round;stroke-miterlimit:10;" d="M76.927,313.267
				c0,0-2.363-3.046-2.363-4.987"/>
			<path style="fill:#FFFFFF;stroke:#263238;stroke-linecap:round;stroke-linejoin:round;stroke-miterlimit:10;" d="M86.172,328.654
				c0,0,3.613,2.621,5.775,4.29c3.935,3.036,11.412,3.036,11.412,3.036"/>
			<path style="fill:#FFFFFF;stroke:#263238;stroke-linecap:round;stroke-linejoin:round;stroke-miterlimit:10;" d="M81.717,333.769
				c0,0,3.96,4.125,9.075,5.775c5.115,1.65,7.26,0.99,7.26,0.99"/>
		</g>
	</g>
</g>
<g id="Line">
	
		<line style="fill:none;stroke:#263238;stroke-linecap:round;stroke-linejoin:round;stroke-miterlimit:10;" x1="13.758" y1="437.341" x2="489.354" y2="437.341"/>
</g>
<g id="Hearts">
	<g>
		<path style="fill:#263238;stroke:#263238;stroke-linecap:round;stroke-linejoin:round;stroke-miterlimit:10;" d="M112.803,140.9
			c0-3.34-2.708-6.048-6.048-6.048c-3.028,0-5.529,2.228-5.971,5.132c-0.442-2.905-2.943-5.132-5.971-5.132
			c-3.34,0-6.048,2.708-6.048,6.048c0,1.174,0.34,2.266,0.918,3.193c0.345,0.615,1.612,2.625,4.702,5.245
			c3.73,3.162,6.427,5.271,6.427,5.271s2.697-2.108,6.427-5.271c3.73-3.162,4.771-5.452,4.771-5.452
			C112.512,143.005,112.803,141.987,112.803,140.9z"/>
		<path style="fill:#263238;stroke:#263238;stroke-linecap:round;stroke-linejoin:round;stroke-miterlimit:10;" d="M408.667,214.137
			c0-3.34-2.708-6.048-6.048-6.048c-3.028,0-5.529,2.228-5.971,5.132c-0.442-2.904-2.943-5.132-5.971-5.132
			c-3.34,0-6.048,2.708-6.048,6.048c0,1.174,0.34,2.266,0.918,3.193c0.345,0.615,1.612,2.625,4.702,5.244
			c3.73,3.162,6.427,5.271,6.427,5.271s2.697-2.108,6.427-5.271c3.73-3.162,4.771-5.452,4.771-5.452
			C408.377,216.241,408.667,215.223,408.667,214.137z"/>
		<path style="fill:#263238;stroke:#263238;stroke-linecap:round;stroke-linejoin:round;stroke-miterlimit:10;" d="M140.838,177.179
			c0-3.34-2.708-6.048-6.048-6.048c-3.028,0-5.529,2.228-5.971,5.132c-0.442-2.904-2.943-5.132-5.971-5.132
			c-3.34,0-6.048,2.708-6.048,6.048c0,1.174,0.34,2.266,0.918,3.193c0.345,0.615,1.612,2.625,4.702,5.245
			c3.73,3.162,6.427,5.27,6.427,5.27s2.697-2.108,6.426-5.27c3.73-3.162,4.771-5.452,4.771-5.452
			C140.547,179.284,140.838,178.266,140.838,177.179z"/>
		<path style="fill:#263238;stroke:#263238;stroke-linecap:round;stroke-linejoin:round;stroke-miterlimit:10;" d="M348.546,103.547
			c0-4.834-3.919-8.753-8.753-8.753c-4.383,0-8.003,3.224-8.642,7.428c-0.64-4.204-4.26-7.428-8.643-7.428
			c-4.834,0-8.753,3.919-8.753,8.753c0,1.699,0.492,3.279,1.329,4.622c0.499,0.889,2.333,3.799,6.805,7.591
			c5.399,4.577,9.302,7.629,9.302,7.629s3.903-3.051,9.302-7.629c5.399-4.577,6.906-7.891,6.906-7.891
			C348.125,106.593,348.546,105.12,348.546,103.547z"/>
		<path style="fill:#263238;stroke:#263238;stroke-linecap:round;stroke-linejoin:round;stroke-miterlimit:10;" d="M403.396,144.331
			c0-3.222-2.612-5.833-5.833-5.833c-2.921,0-5.333,2.149-5.759,4.95c-0.426-2.801-2.839-4.95-5.759-4.95
			c-3.222,0-5.833,2.612-5.833,5.833c0,1.132,0.328,2.185,0.886,3.08c0.333,0.593,1.555,2.532,4.535,5.059
			c3.598,3.05,6.199,5.084,6.199,5.084s2.601-2.033,6.199-5.084c3.598-3.05,4.602-5.258,4.602-5.258
			C403.115,146.361,403.396,145.38,403.396,144.331z"/>
		<path style="fill:#263238;stroke:#263238;stroke-linecap:round;stroke-linejoin:round;stroke-miterlimit:10;" d="M175.143,93.752
			c0-4.834-3.919-8.753-8.753-8.753c-4.383,0-8.003,3.225-8.643,7.428c-0.64-4.204-4.26-7.428-8.643-7.428
			c-4.834,0-8.753,3.919-8.753,8.753c0,1.699,0.492,3.279,1.329,4.622c0.499,0.889,2.333,3.799,6.805,7.591
			c5.399,4.577,9.302,7.629,9.302,7.629s3.903-3.051,9.302-7.629c5.399-4.577,6.906-7.891,6.906-7.891
			C174.723,96.798,175.143,95.325,175.143,93.752z"/>
	</g>
</g>
</svg>
