<?xml version="1.0" encoding="utf-8"?>
<!-- Generator: Adobe Illustrator 27.5.0, SVG Export Plug-In . SVG Version: 6.00 Build 0)  -->
<svg version="1.1" xmlns="http://www.w3.org/2000/svg" xmlns:xlink="http://www.w3.org/1999/xlink" x="0px" y="0px"
	 viewBox="0 0 750 500" style="enable-background:new 0 0 750 500;" xml:space="preserve">
<g id="Background_Simple">
	<g>
		<path style="fill:#92E3A9;" d="M710.634,224.799c-0.766-41.217-21.764-81.006-53.745-111.72
			c-18.71-17.968-41.223-33.709-65.801-45.966c-25.508-12.721-53.24-26.967-84.018-29.154c-7.596-0.54-15.385-0.281-22.882,1.442
			C455.485,46,512.282,69.517,519.705,72.956c-79.385-26.184-161.555-52.789-248.332-50.28c-16.732,0.484-34.089,2.221-48.8,9.382
			s-26.095,20.974-23.905,34.666c1.811,11.318,11.722,23.962,2.426,32.807c-2.658,2.529-6.426,4.025-10.126,5.323
			c-18.983,6.661-39.476,10.155-57.459,18.63c-27.848,13.124-46.853,37.237-55.661,62.608c-8.809,25.372-8.386,52.031-4.928,77.839
			c6.507,48.571,24.202,96.758,60.011,134.53c51.15,53.954,135.008,81.436,219.005,85.965
			c101.64,5.48,211.838-23.224,279.047-89.659c9.968-9.853,19.108-20.77,22.734-33.127c3.625-12.357,0.753-26.438-10.405-34.553
			c-3.007-2.187-6.877-4.506-6.551-7.9c0.441-4.593,7.595-6.145,13.048-7.109c35.777-6.325,56.238-39.795,59.928-69.895
			C710.451,236.375,710.741,230.573,710.634,224.799z"/>
		<path style="opacity:0.7;fill:#FFFFFF;" d="M710.634,224.799c-0.766-41.217-21.764-81.006-53.745-111.72
			c-18.71-17.968-41.223-33.709-65.801-45.966c-25.508-12.721-53.24-26.967-84.018-29.154c-7.596-0.54-15.385-0.281-22.882,1.442
			C455.485,46,512.282,69.517,519.705,72.956c-79.385-26.184-161.555-52.789-248.332-50.28c-16.732,0.484-34.089,2.221-48.8,9.382
			s-26.095,20.974-23.905,34.666c1.811,11.318,11.722,23.962,2.426,32.807c-2.658,2.529-6.426,4.025-10.126,5.323
			c-18.983,6.661-39.476,10.155-57.459,18.63c-27.848,13.124-46.853,37.237-55.661,62.608c-8.809,25.372-8.386,52.031-4.928,77.839
			c6.507,48.571,24.202,96.758,60.011,134.53c51.15,53.954,135.008,81.436,219.005,85.965
			c101.64,5.48,211.838-23.224,279.047-89.659c9.968-9.853,19.108-20.77,22.734-33.127c3.625-12.357,0.753-26.438-10.405-34.553
			c-3.007-2.187-6.877-4.506-6.551-7.9c0.441-4.593,7.595-6.145,13.048-7.109c35.777-6.325,56.238-39.795,59.928-69.895
			C710.451,236.375,710.741,230.573,710.634,224.799z"/>
	</g>
</g>
<g id="Window">
	<g>
		<path style="opacity:0.2;" d="M709.547,20.069c-2.875,0-5.29,1.868-6.165,4.448H383.905c-0.875-2.58-3.29-4.448-6.166-4.448
			c-3.611,0-6.538,2.927-6.538,6.538c0,3.611,2.927,6.538,6.538,6.538c2.875,0,5.29-1.868,6.166-4.447h319.477
			c0.875,2.579,3.29,4.447,6.165,4.447c3.611,0,6.538-2.927,6.538-6.538C716.085,22.996,713.158,20.069,709.547,20.069z"/>
		<g style="opacity:0.2;">
			<path style="fill:none;stroke:#000000;stroke-linejoin:round;stroke-miterlimit:10;" d="M459.465,29.876
				c4.554,110.759,8.536,222.577,13.303,332.934l-0.471,21.628c0,0-20.476,0-31.253,1.078c-10.777,1.078-27.481,1.078-39.335,1.078
				c-11.854,0-18.32-4.311-18.32-4.311l0.771-19.506c2.392-110.3,4.972-222.13,6.655-332.9"/>
			
				<line style="fill:none;stroke:#000000;stroke-linejoin:round;stroke-miterlimit:10;" x1="408.42" y1="344.5" x2="408.362" y2="357.541"/>
			
				<line style="fill:none;stroke:#000000;stroke-linejoin:round;stroke-miterlimit:10;" x1="409.534" y1="90.404" x2="408.471" y2="332.921"/>
			
				<line style="fill:none;stroke:#000000;stroke-linejoin:round;stroke-miterlimit:10;" x1="409.81" y1="27.422" x2="409.566" y2="83.168"/>
			
				<line style="fill:none;stroke:#000000;stroke-linejoin:round;stroke-miterlimit:10;" x1="428.177" y1="154.818" x2="425.737" y2="316.276"/>
			
				<line style="fill:none;stroke:#000000;stroke-linejoin:round;stroke-miterlimit:10;" x1="430.081" y1="28.87" x2="428.33" y2="144.718"/>
			
				<line style="fill:none;stroke:#000000;stroke-linejoin:round;stroke-miterlimit:10;" x1="445.328" y1="199.717" x2="446.008" y2="349.577"/>
			
				<line style="fill:none;stroke:#000000;stroke-linejoin:round;stroke-miterlimit:10;" x1="444.845" y1="93.303" x2="445.272" y2="187.417"/>
			
				<line style="fill:none;stroke:#000000;stroke-linejoin:round;stroke-miterlimit:10;" x1="444.56" y1="30.318" x2="444.793" y2="81.72"/>
		</g>
		<g style="opacity:0.2;">
			<path style="fill:none;stroke:#000000;stroke-linejoin:round;stroke-miterlimit:10;" d="M624.75,29.876
				c-4.38,117.269-9.955,235.724-14.152,352.375c0,0,13.944,2.109,22.918,2.109c8.974,0,10.769,0,20.641,0
				c9.871,0,15.256,0,25.128,0c9.871,0,21.189-2.189,21.189-2.189C698.41,265.6,697.017,147.145,693.4,29.876"/>
			
				<line style="fill:none;stroke:#000000;stroke-linejoin:round;stroke-miterlimit:10;" x1="675.796" y1="344.5" x2="675.853" y2="357.541"/>
			
				<line style="fill:none;stroke:#000000;stroke-linejoin:round;stroke-miterlimit:10;" x1="674.681" y1="90.404" x2="675.745" y2="332.921"/>
			
				<line style="fill:none;stroke:#000000;stroke-linejoin:round;stroke-miterlimit:10;" x1="674.405" y1="27.422" x2="674.649" y2="83.168"/>
			
				<line style="fill:none;stroke:#000000;stroke-linejoin:round;stroke-miterlimit:10;" x1="656.038" y1="154.818" x2="658.478" y2="316.276"/>
			
				<line style="fill:none;stroke:#000000;stroke-linejoin:round;stroke-miterlimit:10;" x1="654.134" y1="28.87" x2="655.885" y2="144.718"/>
			
				<line style="fill:none;stroke:#000000;stroke-linejoin:round;stroke-miterlimit:10;" x1="638.887" y1="199.717" x2="638.208" y2="349.577"/>
			
				<line style="fill:none;stroke:#000000;stroke-linejoin:round;stroke-miterlimit:10;" x1="639.37" y1="93.303" x2="638.943" y2="187.417"/>
			
				<line style="fill:none;stroke:#000000;stroke-linejoin:round;stroke-miterlimit:10;" x1="639.656" y1="30.318" x2="639.422" y2="81.72"/>
		</g>
		<g style="opacity:0.2;">
			<polyline style="fill:none;stroke:#000000;stroke-linejoin:round;stroke-miterlimit:10;" points="461.5,61.35 493.653,61.35 
				493.653,98.862 463.643,98.862 			"/>
			
				<rect x="499.26" y="61.443" style="fill:none;stroke:#000000;stroke-linejoin:round;stroke-miterlimit:10;" width="33.607" height="37.625"/>
		</g>
		<g style="opacity:0.2;">
			<polyline style="fill:none;stroke:#000000;stroke-linejoin:round;stroke-miterlimit:10;" points="623.15,61.35 590.996,61.35 
				590.996,98.862 621.006,98.862 			"/>
			
				<rect x="551.783" y="61.443" transform="matrix(-1 -1.224647e-16 1.224647e-16 -1 1137.1729 160.5115)" style="fill:none;stroke:#000000;stroke-linejoin:round;stroke-miterlimit:10;" width="33.607" height="37.625"/>
		</g>
		<polyline style="opacity:0.2;fill:none;stroke:#000000;stroke-linejoin:round;stroke-miterlimit:10;" points="466.806,231.802 
			533.724,231.802 533.724,119.344 463.864,119.344 		"/>
		<polyline style="opacity:0.2;fill:none;stroke:#000000;stroke-linejoin:round;stroke-miterlimit:10;" points="619.762,118.391 
			551.373,118.391 551.373,231.802 614.614,231.802 		"/>
		<polyline style="opacity:0.2;fill:none;stroke:#000000;stroke-linejoin:round;stroke-miterlimit:10;" points="469.012,258.487 
			533.724,258.487 533.724,371.535 473.913,371.535 		"/>
		<polyline style="opacity:0.2;fill:none;stroke:#000000;stroke-linejoin:round;stroke-miterlimit:10;" points="615.35,257.534 
			551.373,257.534 551.373,372.583 609.701,372.583 		"/>
		
			<line style="opacity:0.2;fill:none;stroke:#000000;stroke-linejoin:round;stroke-miterlimit:10;" x1="473.618" y1="379.764" x2="610.598" y2="379.764"/>
		
			<line style="opacity:0.2;fill:none;stroke:#000000;stroke-linejoin:round;stroke-miterlimit:10;" x1="461.228" y1="48.334" x2="623.072" y2="48.334"/>
		
			<line style="opacity:0.2;fill:none;stroke:#000000;stroke-linejoin:round;stroke-miterlimit:10;" x1="542.537" y1="49.108" x2="542.537" y2="378.215"/>
		
			<line style="opacity:0.2;fill:none;stroke:#000000;stroke-linejoin:round;stroke-miterlimit:10;" x1="463.282" y1="110.646" x2="620.709" y2="110.646"/>
	</g>
</g>
<g id="Pictures">
	<g style="opacity:0.3;">
		
			<rect x="150.889" y="30.656" style="fill:none;stroke:#000000;stroke-linecap:round;stroke-linejoin:round;stroke-miterlimit:10;" width="104.242" height="122.158"/>
		
			<rect x="179.643" y="64.352" style="fill:none;stroke:#000000;stroke-linecap:round;stroke-linejoin:round;stroke-miterlimit:10;" width="46.733" height="54.765"/>
	</g>
	<g style="opacity:0.3;">
		
			<rect x="271.201" y="93.618" style="fill:none;stroke:#000000;stroke-linecap:round;stroke-linejoin:round;stroke-miterlimit:10;" width="72.274" height="84.696"/>
		
			<rect x="291.137" y="116.981" style="fill:none;stroke:#000000;stroke-linecap:round;stroke-linejoin:round;stroke-miterlimit:10;" width="32.402" height="37.971"/>
	</g>
</g>
<g id="Plant">
	<g>
		<g>
			<g>
				<path style="fill:none;stroke:#92E3A9;stroke-linecap:round;stroke-linejoin:round;stroke-miterlimit:10;" d="M144.161,295.955
					c0,0-4.629-84.789-17.461-124.651"/>
				<path style="fill:#92E3A9;" d="M131.555,189.575c0,0,2.036-4.925,5.398-15.465c3.363-10.54,3.844-38.258,3.844-38.258
					s-3.399,7.742-6.493,17.439C131.211,162.988,131.555,189.575,131.555,189.575z"/>
				<path style="fill:#92E3A9;" d="M131.977,191.331c0,0-2.264-4.824-7.779-14.415c-5.516-9.591-25.658-28.638-25.658-28.638
					s3.425,7.73,8.499,16.554C112.112,173.655,131.977,191.331,131.977,191.331z"/>
				<path style="fill:#92E3A9;" d="M134.553,206.553c0,0-2.264-4.824-7.779-14.415c-5.516-9.591-25.658-28.637-25.658-28.637
					s3.425,7.73,8.499,16.554S134.553,206.553,134.553,206.553z"/>
				<path style="fill:#92E3A9;" d="M138.143,224.421c0,0-2.264-4.824-7.779-14.415c-5.516-9.591-25.658-28.638-25.658-28.638
					s3.425,7.73,8.499,16.554C118.278,206.746,138.143,224.421,138.143,224.421z"/>
				<path style="fill:#92E3A9;" d="M141.024,241.598c0,0-2.264-4.824-7.779-14.415c-5.516-9.591-25.658-28.637-25.658-28.637
					s3.424,7.73,8.499,16.554C121.159,223.923,141.024,241.598,141.024,241.598z"/>
				<path style="fill:#92E3A9;" d="M141.187,254.192c0,0-2.264-4.824-7.779-14.415c-5.516-9.591-25.658-28.638-25.658-28.638
					s3.425,7.73,8.499,16.554C121.322,236.517,141.187,254.192,141.187,254.192z"/>
				<path style="fill:#92E3A9;" d="M128.723,179.775c0,0,0.341-5.318,0.128-16.38c-0.212-11.062-8.686-37.457-8.686-37.457
					s-0.724,8.424-0.528,18.6C119.832,154.716,128.723,179.775,128.723,179.775z"/>
				<path style="fill:#92E3A9;" d="M135.388,206.586c0,0,2.1-4.898,5.6-15.393c3.5-10.495,4.345-38.204,4.345-38.204
					s-3.5,7.696-6.72,17.352C135.393,179.996,135.388,206.586,135.388,206.586z"/>
				<path style="fill:#92E3A9;" d="M138.019,226.006c0,0,2.1-4.898,5.6-15.393c3.5-10.495,4.345-38.204,4.345-38.204
					s-3.5,7.697-6.72,17.352C138.023,199.416,138.019,226.006,138.019,226.006z"/>
				<path style="fill:#92E3A9;" d="M140.209,243.892c0,0,2.262-4.825,6.111-15.198c3.849-10.373,5.618-38.038,5.618-38.038
					s-3.755,7.575-7.296,17.118C141.102,217.317,140.209,243.892,140.209,243.892z"/>
				<path style="fill:#92E3A9;" d="M141.187,254.192c0,0,2.004-2.818,5.853-13.191c3.849-10.373,5.618-38.038,5.618-38.038
					s-3.755,7.575-7.296,17.118S141.187,254.192,141.187,254.192z"/>
			</g>
			<g>
				<path style="fill:none;stroke:#92E3A9;stroke-linecap:round;stroke-linejoin:round;stroke-miterlimit:10;" d="M143.813,286.03
					c0,0,32.405-44.838,47.016-84.083"/>
				<path style="fill:#92E3A9;" d="M183.326,219.3c0,0,4.648-2.606,13.816-8.8c9.168-6.193,26.711-27.659,26.711-27.659
					s-7.463,3.974-15.897,9.672C199.521,198.212,183.326,219.3,183.326,219.3z"/>
				<path style="fill:#92E3A9;" d="M182.569,220.939c0,0,1.21-5.19,2.819-16.136c1.609-10.946-2.411-38.375-2.411-38.375
					s-2.098,8.19-3.578,18.261C177.918,194.76,182.569,220.939,182.569,220.939z"/>
				<path style="fill:#92E3A9;" d="M175.165,234.487c0,0,1.21-5.19,2.819-16.136c1.609-10.946-2.411-38.375-2.411-38.375
					s-2.098,8.19-3.578,18.261C170.514,208.307,175.165,234.487,175.165,234.487z"/>
				<path style="fill:#92E3A9;" d="M166.919,250.739c0,0,1.21-5.19,2.819-16.136c1.609-10.946-2.411-38.375-2.411-38.375
					s-2.098,8.19-3.578,18.261C162.268,224.56,166.919,250.739,166.919,250.739z"/>
				<path style="fill:#92E3A9;" d="M158.543,266.011c0,0,1.21-5.19,2.819-16.136c1.609-10.946-2.411-38.375-2.411-38.375
					s-2.098,8.19-3.578,18.261C153.892,239.831,158.543,266.011,158.543,266.011z"/>
				<path style="fill:#92E3A9;" d="M150.872,276c0,0,1.21-5.19,2.819-16.136c1.609-10.946-2.411-38.375-2.411-38.375
					s-2.098,8.19-3.578,18.261C146.221,249.82,150.872,276,150.872,276z"/>
				<path style="fill:#92E3A9;" d="M187.17,209.852c0,0,3.561-3.965,10.244-12.781c6.684-8.817,16.376-34.789,16.376-34.789
					s-5.785,6.166-11.934,14.277C195.708,184.67,187.17,209.852,187.17,209.852z"/>
				<path style="fill:#92E3A9;" d="M175.801,235.03c0,0,4.682-2.545,13.93-8.618c9.248-6.073,27.071-27.306,27.071-27.306
					s-7.514,3.876-16.022,9.463C192.271,214.156,175.801,235.03,175.801,235.03z"/>
				<path style="fill:#92E3A9;" d="M165.84,251.907c0,0,4.682-2.545,13.93-8.618c9.248-6.073,27.07-27.306,27.07-27.306
					s-7.514,3.876-16.022,9.463S165.84,251.907,165.84,251.907z"/>
				<path style="fill:#92E3A9;" d="M156.483,267.308c0,0,4.764-2.387,14.21-8.148c9.446-5.761,27.967-26.387,27.967-26.387
					s-7.639,3.623-16.329,8.922C173.641,246.995,156.483,267.308,156.483,267.308z"/>
				<path style="fill:#92E3A9;" d="M149.426,277.416c0,0,4.764-2.387,14.21-8.148c9.446-5.761,27.967-26.387,27.967-26.387
					s-7.639,3.622-16.329,8.922C166.584,257.103,149.426,277.416,149.426,277.416z"/>
			</g>
			<g>
				<path style="fill:none;stroke:#92E3A9;stroke-linecap:round;stroke-linejoin:round;stroke-miterlimit:10;" d="M143.041,282.783
					c0,0-23.856-28.365-52.459-47.562"/>
				<path style="fill:#92E3A9;" d="M103.03,244.544c0,0-1.196-4.217-4.397-12.737s-17.019-26.661-17.019-26.661
					s1.751,6.731,4.697,14.569C89.256,227.552,103.03,244.544,103.03,244.544z"/>
				<path style="fill:#92E3A9;" d="M104.197,245.462c0,0-3.921-1.961-12.37-5.342s-31.164-5.412-31.164-5.412
					s6.151,3.246,13.925,6.356C82.361,244.175,104.197,245.462,104.197,245.462z"/>
				<path style="fill:#92E3A9;" d="M113.619,253.977c0,0-3.921-1.961-12.37-5.342c-8.45-3.381-31.164-5.412-31.164-5.412
					s6.151,3.246,13.925,6.356C91.784,252.69,113.619,253.977,113.619,253.977z"/>
				<path style="fill:#92E3A9;" d="M125.044,263.684c0,0-3.921-1.961-12.37-5.342c-8.45-3.381-31.164-5.412-31.164-5.412
					s6.151,3.246,13.925,6.356C103.209,262.397,125.044,263.684,125.044,263.684z"/>
				<path style="fill:#92E3A9;" d="M135.66,273.307c0,0-3.921-1.961-12.37-5.342c-8.45-3.381-31.164-5.412-31.164-5.412
					s6.151,3.246,13.925,6.356C113.825,272.02,135.66,273.307,135.66,273.307z"/>
				<path style="fill:#92E3A9;" d="M142.185,281.355c0,0-3.921-1.961-12.37-5.342c-8.45-3.381-31.164-5.412-31.164-5.412
					s6.151,3.246,13.925,6.356C120.35,280.068,142.185,281.355,142.185,281.355z"/>
				<path style="fill:#92E3A9;" d="M96.206,239.66c0,0-2.491-3.607-8.266-10.641c-5.775-7.034-24.701-19.757-24.701-19.757
					s3.827,5.808,9.14,12.279C77.692,228.012,96.206,239.66,96.206,239.66z"/>
				<path style="fill:#92E3A9;" d="M114.175,253.573c0,0-1.141-4.233-4.23-12.793c-3.09-8.561-16.668-26.882-16.668-26.882
					s1.663,6.753,4.506,14.629C100.625,236.403,114.175,253.573,114.175,253.573z"/>
				<path style="fill:#92E3A9;" d="M125.772,264.771c0,0-1.141-4.233-4.23-12.793s-16.668-26.882-16.668-26.882
					s1.663,6.753,4.506,14.629S125.772,264.771,125.772,264.771z"/>
				<path style="fill:#92E3A9;" d="M136.304,275.203c0,0-0.999-4.269-3.801-12.928c-2.802-8.659-15.761-27.423-15.761-27.423
					s1.437,6.805,4.015,14.771C123.334,257.59,136.304,275.203,136.304,275.203z"/>
				<path style="fill:#92E3A9;" d="M143.041,282.783c0,0-0.999-4.268-3.801-12.927s-15.761-27.423-15.761-27.423
					s1.437,6.805,4.015,14.771C130.071,265.169,143.041,282.783,143.041,282.783z"/>
			</g>
		</g>
		<g>
			<g>
				<path style="fill:none;stroke:#92E3A9;stroke-linecap:round;stroke-linejoin:round;stroke-miterlimit:10;" d="M148.253,399.827
					c0,0-36.347-76.743-63.298-108.794"/>
				<path style="fill:#92E3A9;" d="M96.358,306.113c0,0,0.022-5.329-0.85-16.358C94.635,278.725,84.6,252.883,84.6,252.883
					s-0.219,8.452,0.584,18.599C85.986,281.629,96.358,306.113,96.358,306.113z"/>
				<path style="fill:#92E3A9;" d="M97.412,307.578c0,0-3.92-3.61-12.653-10.403c-8.733-6.793-34.582-16.809-34.582-16.809
					s6.093,5.861,14.127,12.111C72.339,298.727,97.412,307.578,97.412,307.578z"/>
				<path style="fill:#92E3A9;" d="M105.552,320.696c0,0-3.92-3.61-12.652-10.403c-8.733-6.793-34.582-16.809-34.582-16.809
					s6.093,5.861,14.127,12.111C80.479,311.845,105.552,320.696,105.552,320.696z"/>
				<path style="fill:#92E3A9;" d="M115.632,335.88c0,0-3.92-3.61-12.653-10.403c-8.733-6.793-34.582-16.809-34.582-16.809
					s6.093,5.861,14.127,12.111S115.632,335.88,115.632,335.88z"/>
				<path style="fill:#92E3A9;" d="M124.795,350.693c0,0-3.92-3.61-12.653-10.403c-8.733-6.793-34.582-16.809-34.582-16.809
					s6.093,5.861,14.127,12.111C99.722,341.841,124.795,350.693,124.795,350.693z"/>
				<path style="fill:#92E3A9;" d="M129.708,362.29c0,0-3.92-3.61-12.653-10.403c-8.733-6.793-34.582-16.809-34.582-16.809
					s6.093,5.861,14.127,12.111S129.708,362.29,129.708,362.29z"/>
				<path style="fill:#92E3A9;" d="M90.03,298.111c0,0-1.696-5.052-6.075-15.212c-4.379-10.16-22.204-31.391-22.204-31.391
					s2.515,8.072,6.544,17.419C72.324,278.275,90.03,298.111,90.03,298.111z"/>
				<path style="fill:#92E3A9;" d="M106.339,320.411c0,0,0.092-5.328-0.636-16.368c-0.728-11.04-10.424-37.011-10.424-37.011
					s-0.33,8.448,0.34,18.605C96.288,295.794,106.339,320.411,106.339,320.411z"/>
				<path style="fill:#92E3A9;" d="M116.117,337.394c0,0,0.092-5.328-0.636-16.368c-0.728-11.04-10.424-37.011-10.424-37.011
					s-0.33,8.448,0.34,18.605C106.067,312.777,116.117,337.394,116.117,337.394z"/>
				<path style="fill:#92E3A9;" d="M124.908,353.124c0,0,0.27-5.322-0.089-16.38c-0.359-11.058-9.182-37.338-9.182-37.338
					s-0.612,8.433-0.281,18.606C115.686,328.185,124.908,353.124,124.908,353.124z"/>
				<path style="fill:#92E3A9;" d="M129.708,362.29c0,0,0.79-3.367,0.431-14.425c-0.359-11.058-9.182-37.338-9.182-37.338
					s-0.612,8.433-0.281,18.606C121.005,339.307,129.708,362.29,129.708,362.29z"/>
			</g>
			<g>
				<path style="fill:none;stroke:#92E3A9;stroke-linecap:round;stroke-linejoin:round;stroke-miterlimit:10;" d="M144.178,390.771
					c0,0,13.045-53.762,11.731-95.618"/>
				<path style="fill:#92E3A9;" d="M155.524,314.055c0,0,3.318-4.17,9.463-13.37c6.145-9.2,14.269-35.705,14.269-35.705
					s-5.406,6.501-11.06,14.965C162.543,288.408,155.524,314.055,155.524,314.055z"/>
				<path style="fill:#92E3A9;" d="M155.444,315.858c0,0-0.842-5.262-3.492-16.004c-2.65-10.742-16.743-34.614-16.743-34.614
					s1.154,8.376,3.592,18.258C141.239,293.381,155.444,315.858,155.444,315.858z"/>
				<path style="fill:#92E3A9;" d="M153.712,331.199c0,0-0.842-5.262-3.492-16.004c-2.65-10.742-16.743-34.614-16.743-34.614
					s1.154,8.376,3.592,18.258C139.508,308.722,153.712,331.199,153.712,331.199z"/>
				<path style="fill:#92E3A9;" d="M152.224,349.364c0,0-0.842-5.262-3.492-16.004c-2.65-10.742-16.743-34.614-16.743-34.614
					s1.154,8.376,3.592,18.258C138.019,326.886,152.224,349.364,152.224,349.364z"/>
				<path style="fill:#92E3A9;" d="M150.245,366.668c0,0-0.842-5.262-3.492-16.004c-2.65-10.742-16.743-34.614-16.743-34.614
					s1.154,8.376,3.592,18.258C136.04,344.191,150.245,366.668,150.245,366.668z"/>
				<path style="fill:#92E3A9;" d="M146.92,378.817c0,0-0.842-5.262-3.492-16.004c-2.65-10.742-16.743-34.614-16.743-34.614
					s1.154,8.376,3.592,18.258C132.715,356.339,146.92,378.817,146.92,378.817z"/>
				<path style="fill:#92E3A9;" d="M155.511,303.854c0,0,1.797-5.017,4.651-15.706c2.854-10.689,2.006-38.398,2.006-38.398
					s-3.024,7.896-5.649,17.73S155.511,303.854,155.511,303.854z"/>
				<path style="fill:#92E3A9;" d="M154.507,331.462c0,0,3.372-4.126,9.637-13.245c6.265-9.119,14.735-35.515,14.735-35.515
					s-5.491,6.429-11.255,14.819S154.507,331.462,154.507,331.462z"/>
				<path style="fill:#92E3A9;" d="M151.667,350.853c0,0,3.372-4.126,9.637-13.245c6.265-9.119,14.735-35.515,14.735-35.515
					s-5.491,6.429-11.255,14.819C159.02,325.3,151.667,350.853,151.667,350.853z"/>
				<path style="fill:#92E3A9;" d="M148.828,368.648c0,0,3.508-4.012,10.074-12.916c6.566-8.905,15.913-35.003,15.913-35.003
					s-5.702,6.242-11.743,14.435C157.031,343.355,148.828,368.648,148.828,368.648z"/>
				<path style="fill:#92E3A9;" d="M146.117,380.674c0,0,3.508-4.012,10.074-12.916c6.566-8.905,15.913-35.003,15.913-35.003
					s-5.703,6.242-11.743,14.435C154.32,355.381,146.117,380.674,146.117,380.674z"/>
			</g>
			<g>
				<path style="fill:none;stroke:#263238;stroke-linecap:round;stroke-linejoin:round;stroke-miterlimit:10;" d="M169.551,393.909
					c7.206-9.62,14.035-19.574,19.885-30.085"/>
				<path style="fill:#92E3A9;" d="M179.402,379.848c0,0,4.988-1.876,14.985-6.616c9.997-4.741,30.575-23.316,30.575-23.316
					s-7.977,2.803-17.173,7.164C198.592,361.442,179.402,379.848,179.402,379.848z"/>
				<path style="fill:#92E3A9;" d="M178.408,381.354c0,0,1.979-4.948,5.219-15.526c3.241-10.578,3.401-38.3,3.401-38.3
					s-3.309,7.78-6.29,17.513C177.757,354.772,178.408,381.354,178.408,381.354z"/>
				<path style="fill:#92E3A9;" d="M169.046,393.63c0,0,1.979-4.948,5.219-15.526c3.241-10.578,3.401-38.3,3.401-38.3
					s-3.309,7.78-6.29,17.513C168.395,367.048,169.046,393.63,169.046,393.63z"/>
				<path style="fill:#92E3A9;" d="M161.416,400.01c0.657-1.995,1.409-4.346,2.247-7.083c3.24-10.578,3.401-38.3,3.401-38.3
					s-3.309,7.78-6.29,17.513c-1.899,6.198-2.323,19.222-2.382,27.87H161.416z"/>
				<path style="fill:#92E3A9;" d="M154.491,400.01c1.878-12.543,1.991-31.548,1.991-31.548s-3.309,7.78-6.29,17.512
					c-1.012,3.303-1.605,8.548-1.947,14.036H154.491z"/>
				<path style="fill:#92E3A9;" d="M146.385,400.01c0.939-11.108,1.008-22.83,1.008-22.83s-3.309,7.78-6.29,17.512
					c-0.443,1.446-0.804,3.27-1.101,5.317H146.385z"/>
				<path style="fill:#92E3A9;" d="M184.628,371.086c0,0,4.118-3.382,12.054-11.091c7.937-7.708,21.434-31.923,21.434-31.923
					s-6.648,5.223-13.95,12.315C196.864,347.48,184.628,371.086,184.628,371.086z"/>
				<path style="fill:#92E3A9;" d="M169.592,394.263c0,0,5.012-1.81,15.07-6.419c10.058-4.609,30.878-22.913,30.878-22.913
					s-8.013,2.698-17.266,6.939C189.021,376.11,169.592,394.263,169.592,394.263z"/>
				<path style="fill:#92E3A9;" d="M177.613,400.01c10.676-6.834,25.536-19.897,25.536-19.897s-8.013,2.698-17.266,6.939
					c-4.679,2.144-11.958,7.845-18.013,12.958H177.613z"/>
				<path style="fill:#92E3A9;" d="M186.84,400.01c3.414-2.663,5.691-4.533,5.691-4.533s-5.636,1.691-12.955,4.533H186.84z"/>
			</g>
			<g>
				<path style="fill:none;stroke:#92E3A9;stroke-linecap:round;stroke-linejoin:round;stroke-miterlimit:10;" d="M142.235,388.057
					c0,0-32.81-17.238-66.549-24.194"/>
				<path style="fill:#92E3A9;" d="M90.735,367.786c0,0-2.702-3.452-8.887-10.129c-6.185-6.677-25.837-18.247-25.837-18.247
					s4.167,5.569,9.857,11.711C71.559,357.264,90.735,367.786,90.735,367.786z"/>
				<path style="fill:#92E3A9;" d="M92.163,368.195c0,0-4.371-0.333-13.472-0.268c-9.101,0.065-30.896,6.774-30.896,6.774
					s6.922,0.679,15.295,0.619C71.462,375.26,92.163,368.195,92.163,368.195z"/>
				<path style="fill:#92E3A9;" d="M104.105,372.515c0,0-4.371-0.333-13.472-0.268c-9.101,0.065-30.896,6.774-30.896,6.774
					s6.922,0.679,15.295,0.619C83.405,379.58,104.105,372.515,104.105,372.515z"/>
				<path style="fill:#92E3A9;" d="M118.353,377.181c0,0-4.371-0.333-13.472-0.268c-9.101,0.065-30.896,6.774-30.896,6.774
					s6.922,0.679,15.295,0.619C97.653,384.246,118.353,377.181,118.353,377.181z"/>
				<path style="fill:#92E3A9;" d="M131.819,382.075c0,0-4.371-0.333-13.472-0.268c-9.101,0.065-30.896,6.774-30.896,6.774
					s6.922,0.679,15.295,0.619C111.119,389.14,131.819,382.075,131.819,382.075z"/>
				<path style="fill:#92E3A9;" d="M140.903,387.059c0,0-4.371-0.333-13.472-0.268c-9.101,0.065-30.896,6.774-30.896,6.774
					s6.922,0.679,15.295,0.619C120.202,394.124,140.903,387.059,140.903,387.059z"/>
				<path style="fill:#92E3A9;" d="M82.571,365.845c0,0-3.67-2.398-11.676-6.726c-8.006-4.328-30.337-8.95-30.337-8.95
					s5.739,3.93,13.104,7.911C61.028,362.062,82.571,365.845,82.571,365.845z"/>
				<path style="fill:#92E3A9;" d="M104.468,371.93c0,0-2.656-3.487-8.754-10.244c-6.097-6.757-25.596-18.583-25.596-18.583
					s4.093,5.623,9.703,11.839C85.431,361.159,104.468,371.93,104.468,371.93z"/>
				<path style="fill:#92E3A9;" d="M119.438,377.912c0,0-2.656-3.487-8.754-10.244c-6.097-6.757-25.596-18.583-25.596-18.583
					s4.093,5.623,9.703,11.839C100.401,367.14,119.438,377.912,119.438,377.912z"/>
				<path style="fill:#92E3A9;" d="M133.132,383.587c0,0-2.538-3.574-8.407-10.531c-5.868-6.957-24.961-19.428-24.961-19.428
					s3.903,5.757,9.302,12.157C114.465,372.186,133.132,383.587,133.132,383.587z"/>
				<path style="fill:#92E3A9;" d="M142.235,388.057c0,0-2.538-3.574-8.407-10.531c-5.868-6.957-24.961-19.428-24.961-19.428
					s3.903,5.757,9.302,12.157C123.569,376.655,142.235,388.057,142.235,388.057z"/>
			</g>
		</g>
	</g>
</g>
<g id="Table">
	
		<line style="fill:none;stroke:#263238;stroke-linecap:round;stroke-linejoin:round;stroke-miterlimit:10;" x1="715.602" y1="400.026" x2="31.988" y2="400.026"/>
</g>
<g id="Glass">
	<g>
		<path style="fill:none;stroke:#263238;stroke-linecap:round;stroke-linejoin:round;stroke-miterlimit:10;" d="M388.198,418.603
			h-20.121c-2.847,0-5.217-2.187-5.445-5.025l-3.371-41.937h37.753l-3.371,41.937C393.415,416.416,391.045,418.603,388.198,418.603z
			"/>
		<path style="fill:#92E3A9;stroke:#263238;stroke-linecap:round;stroke-linejoin:round;stroke-miterlimit:10;" d="M362.296,384.533
			l2.16,26.874c0.201,2.504,2.292,4.433,4.804,4.433h17.754c2.512,0,4.603-1.93,4.804-4.433l2.161-26.874H362.296z"/>
		<path style="fill:#FFFFFF;" d="M387.229,374.232l-0.951,39.889c0,0,4.429-0.666,4.804-4.434l1.959-35.455H387.229z"/>
	</g>
</g>
<g id="Dish_3">
	<g>
		<g>
			
				<ellipse style="fill:#FFFFFF;stroke:#263238;stroke-linecap:round;stroke-linejoin:round;stroke-miterlimit:10;" cx="471.765" cy="423.976" rx="58.261" ry="17.835"/>
			
				<ellipse style="fill:#FFFFFF;stroke:#263238;stroke-linecap:round;stroke-linejoin:round;stroke-miterlimit:10;" cx="471.765" cy="422.403" rx="58.261" ry="17.835"/>
			
				<ellipse style="fill:#FFFFFF;stroke:#263238;stroke-linecap:round;stroke-linejoin:round;stroke-miterlimit:10;" cx="471.765" cy="421.197" rx="38.501" ry="11.786"/>
		</g>
		<g>
			<path style="fill:#ABABAB;stroke:#263238;stroke-linecap:round;stroke-linejoin:round;stroke-miterlimit:10;" d="M445.02,409.091
				c0,0-8.111,1.217-14.194,6.692c-6.083,5.475,0,11.153,5.069,13.383c5.069,2.231,13.992,3.447,16.628,0.811
				c2.636-2.636-1.014-5.475-3.245-6.083c-2.231-0.608-9.936-2.433-8.719-4.461s9.328-2.231,12.167-5.069
				C455.565,411.524,451.509,406.657,445.02,409.091z"/>
			<path style="fill:none;stroke:#263238;stroke-linecap:round;stroke-linejoin:round;stroke-miterlimit:10;" d="M440.559,419.432
				c0,0-1.419-1.419,1.825-3.65"/>
		</g>
		<g>
			<g>
				<path style="fill:#92E3A9;stroke:#263238;stroke-linecap:round;stroke-linejoin:round;stroke-miterlimit:10;" d="M491,417.237
					c0,0,1.756-2.927,3.279-3.044c1.522-0.117,1.171,1.171,3.279,1.288s2.927-1.756,5.035-0.702c2.108,1.054,1.639,1.756,3.044,2.81
					c1.405,1.054,3.279,1.054,4.332,1.522c1.054,0.468,2.576,0.117,1.522,2.225c-1.054,2.108,1.054,3.044-1.288,3.63
					c-2.342,0.585-3.396-0.117-4.332,1.054s-1.054,2.225-2.576,2.342c-1.522,0.117-2.693-0.117-4.215,0.585
					c-1.522,0.703-2.81,0.937-3.279,1.054c-0.468,0.117-4.135,1.535-8.039,0.006C483.858,428.478,485.497,420.984,491,417.237z"/>
				
					<line style="fill:#92E3A9;stroke:#263238;stroke-linecap:round;stroke-linejoin:round;stroke-miterlimit:10;" x1="494.279" y1="420.164" x2="497.206" y2="417.354"/>
				
					<line style="fill:#92E3A9;stroke:#263238;stroke-linecap:round;stroke-linejoin:round;stroke-miterlimit:10;" x1="496.972" y1="421.687" x2="503.529" y2="419.696"/>
				<path style="fill:#FFFFFF;stroke:#263238;stroke-linecap:round;stroke-linejoin:round;stroke-miterlimit:10;" d="
					M499.782,424.497c0.351,0,5.152-0.702,6.089-0.702"/>
			</g>
			<path style="fill:#FFFFFF;stroke:#263238;stroke-linecap:round;stroke-linejoin:round;stroke-miterlimit:10;" d="
				M479.119,408.673c0,0-8.314-2.231-16.222-1.014c-7.908,1.217-7.706,4.867-7.908,6.083c-0.203,1.217-6.489,1.622-6.895,4.461
				c-0.406,2.839,4.461,7.097,18.25,6.692c13.789-0.405,21.495-0.811,24.739-6.692C494.328,412.323,482.566,409.281,479.119,408.673
				z"/>
			
				<ellipse style="fill:#92E3A9;stroke:#263238;stroke-linecap:round;stroke-linejoin:round;stroke-miterlimit:10;" cx="475.368" cy="414.351" rx="8.821" ry="4.056"/>
			<ellipse style="fill:#FFFFFF;" cx="476.28" cy="412.627" rx="2.028" ry="0.913"/>
		</g>
		<g>
			<g>
				<path style="fill:#92E3A9;stroke:#263238;stroke-linecap:round;stroke-linejoin:round;stroke-miterlimit:10;" d="
					M479.561,427.521c0,2.731-4.716,4.944-10.534,4.944c-5.818,0-10.534-2.214-10.534-4.944c0-2.731,4.716-4.944,10.534-4.944
					C474.845,422.576,479.561,424.79,479.561,427.521z"/>
				<path style="fill:#92E3A9;stroke:#263238;stroke-linecap:round;stroke-linejoin:round;stroke-miterlimit:10;" d="
					M479.093,425.764c0,2.731-4.716,4.944-10.534,4.944c-5.818,0-10.534-2.214-10.534-4.944c0-2.731,4.716-4.944,10.534-4.944
					C474.377,420.82,479.093,423.034,479.093,425.764z"/>
				<path style="fill:#92E3A9;stroke:#263238;stroke-linecap:round;stroke-linejoin:round;stroke-miterlimit:10;" d="
					M465.123,424.029c0,0-3.63,0.351-3.63,1.639s1.991,2.459,3.981,2.576c1.991,0.117,4.215-0.117,3.396-0.703
					c-0.82-0.585-1.522-2.81-0.234-2.342c1.288,0.468,2.225,1.639,4.098,1.991c1.873,0.351,4.098,0.351,3.279-1.405
					c-0.82-1.756-3.044-2.459-4.918-2.576c-1.873-0.117-1.639,0.234-2.693,0.586C467.348,424.146,466.529,423.56,465.123,424.029z"
					/>
			</g>
			<path style="fill:#FFFFFF;" d="M465.826,426.136c0,0.194-0.341,0.351-0.761,0.351c-0.42,0-0.761-0.157-0.761-0.351
				s0.341-0.351,0.761-0.351C465.485,425.785,465.826,425.942,465.826,426.136z"/>
			<path style="fill:#FFFFFF;" d="M473.085,425.316c0,0.194-0.419,0.351-0.937,0.351c-0.517,0-0.937-0.157-0.937-0.351
				s0.419-0.351,0.937-0.351C472.666,424.965,473.085,425.122,473.085,425.316z"/>
			<path style="fill:#FFFFFF;" d="M469.104,423.911c0,0.259-0.419,0.468-0.937,0.468s-0.937-0.21-0.937-0.468
				c0-0.259,0.419-0.468,0.937-0.468S469.104,423.653,469.104,423.911z"/>
			<path style="fill:#FFFFFF;" d="M468.285,427.073c0,0.194-0.367,0.351-0.82,0.351c-0.453,0-0.82-0.157-0.82-0.351
				s0.367-0.351,0.82-0.351C467.918,426.721,468.285,426.879,468.285,427.073z"/>
		</g>
		<g>
			<g>
				<path style="fill:#92E3A9;stroke:#263238;stroke-linecap:round;stroke-linejoin:round;stroke-miterlimit:10;" d="
					M498.764,426.818c0,2.731-4.716,4.944-10.534,4.944c-5.818,0-10.534-2.214-10.534-4.944c0-2.731,4.716-4.944,10.534-4.944
					C494.048,421.874,498.764,424.087,498.764,426.818z"/>
				<path style="fill:#92E3A9;stroke:#263238;stroke-linecap:round;stroke-linejoin:round;stroke-miterlimit:10;" d="
					M498.296,425.062c0,2.731-4.716,4.945-10.534,4.945c-5.818,0-10.534-2.214-10.534-4.945c0-2.731,4.716-4.944,10.534-4.944
					C493.58,420.117,498.296,422.331,498.296,425.062z"/>
				<path style="fill:#92E3A9;stroke:#263238;stroke-linecap:round;stroke-linejoin:round;stroke-miterlimit:10;" d="
					M484.326,423.326c0,0-3.63,0.351-3.63,1.639c0,1.288,1.991,2.459,3.981,2.576c1.991,0.117,4.215-0.117,3.396-0.703
					c-0.82-0.585-1.522-2.81-0.234-2.342c1.288,0.468,2.225,1.639,4.098,1.991c1.873,0.351,4.098,0.351,3.279-1.405
					c-0.82-1.756-3.044-2.459-4.918-2.576c-1.873-0.117-1.639,0.234-2.693,0.585C486.551,423.443,485.731,422.858,484.326,423.326z"
					/>
			</g>
			<path style="fill:#FFFFFF;" d="M485.029,425.434c0,0.194-0.341,0.351-0.761,0.351c-0.42,0-0.761-0.157-0.761-0.351
				s0.341-0.351,0.761-0.351C484.688,425.082,485.029,425.24,485.029,425.434z"/>
			<ellipse style="fill:#FFFFFF;" cx="491.351" cy="424.614" rx="0.937" ry="0.351"/>
			<path style="fill:#FFFFFF;" d="M488.307,423.209c0,0.259-0.419,0.468-0.937,0.468c-0.517,0-0.937-0.21-0.937-0.468
				c0-0.259,0.419-0.468,0.937-0.468C487.888,422.741,488.307,422.95,488.307,423.209z"/>
			<path style="fill:#FFFFFF;" d="M487.487,426.37c0,0.194-0.367,0.351-0.82,0.351c-0.453,0-0.82-0.157-0.82-0.351
				s0.367-0.351,0.82-0.351C487.12,426.019,487.487,426.176,487.487,426.37z"/>
		</g>
	</g>
</g>
<g id="Dish_2">
	<g>
		<g>
			
				<ellipse style="fill:#FFFFFF;stroke:#263238;stroke-linecap:round;stroke-linejoin:round;stroke-miterlimit:10;" cx="376.568" cy="465.781" rx="72.715" ry="22.26"/>
			
				<ellipse style="fill:#FFFFFF;stroke:#263238;stroke-linecap:round;stroke-linejoin:round;stroke-miterlimit:10;" cx="376.568" cy="463.818" rx="72.715" ry="22.26"/>
			
				<ellipse style="fill:#FFFFFF;stroke:#263238;stroke-linecap:round;stroke-linejoin:round;stroke-miterlimit:10;" cx="376.568" cy="463.818" rx="48.051" ry="14.71"/>
		</g>
		<g>
			<path style="fill:#92E3A9;stroke:#263238;stroke-linecap:round;stroke-linejoin:round;stroke-miterlimit:10;" d="M369.43,425.312
				c0,0,3.719-3.039,9.323-3.391c5.605-0.352,11.167,3.765,12.042,5.37c0.875,1.606,1.17,2.458,1.17,2.458s2.71,0.015,4.628,1.418
				c1.918,1.403,4.078,7.176,3.358,10.607c-0.72,3.431-3.259,5.743-5.29,6.765c-2.032,1.022-10.404,4.402-10.404,4.402
				s0.214,1.994-4.756,3.716c-4.97,1.723-10.471,2.834-10.471,2.834s-3.473,3.749-7.072,4.837c-3.599,1.089-6.867-1.914-6.867-1.914
				s-7.286,2.844-10.804,2.79c-3.518-0.053-5.873-2.259-5.873-2.259s-8.013,1.664-10.739,0.223
				c-2.727-1.441-6.094-8.863-5.413-11.486c0.682-2.622,1.664-3.917,3.647-5.082c1.982-1.164,6.69-5.023,6.69-5.023
				s0.256-2.475,1.38-3.819c1.125-1.344,8.634-5.379,8.634-5.379s3.554-4.891,9.272-7.668c5.718-2.777,13.087-2.627,15.426-1.847
				C369.648,423.646,369.43,425.312,369.43,425.312z"/>
			<path style="fill:none;stroke:#263238;stroke-linecap:round;stroke-linejoin:round;stroke-miterlimit:10;" d="M383.815,447.055
				c0.128,2.189,0.32,3.702,0.32,3.702"/>
			<path style="fill:none;stroke:#263238;stroke-linecap:round;stroke-linejoin:round;stroke-miterlimit:10;" d="M390.206,429.723
				c0,0-4.556,0.625-5.864,6.487c-0.528,2.365-0.664,5.189-0.638,7.718"/>
			<path style="fill:none;stroke:#263238;stroke-linecap:round;stroke-linejoin:round;stroke-miterlimit:10;" d="M364.688,438.249
				c0.513,11.116,3.564,19.921,3.564,19.921"/>
			<path style="fill:none;stroke:#263238;stroke-linecap:round;stroke-linejoin:round;stroke-miterlimit:10;" d="M367.682,426.236
				c0,0-2.552,0.653-2.984,7.747"/>
			<path style="fill:none;stroke:#263238;stroke-linecap:round;stroke-linejoin:round;stroke-miterlimit:10;" d="M351.268,456.718
				c1.441,2.747,2.57,4.38,2.57,4.38"/>
			<path style="fill:none;stroke:#263238;stroke-linecap:round;stroke-linejoin:round;stroke-miterlimit:10;" d="M343.573,433.32
				c0,0,2.063,9.624,4.568,16.392c0.298,0.806,0.606,1.581,0.917,2.321"/>
			<path style="fill:none;stroke:#263238;stroke-linecap:round;stroke-linejoin:round;stroke-miterlimit:10;" d="M332.576,443.813
				c0,0,0.38,7.981,5.289,17.096"/>
		</g>
		<g>
			<path style="fill:#92E3A9;stroke:#263238;stroke-linecap:round;stroke-linejoin:round;stroke-miterlimit:10;" d="
				M385.756,443.521c0,0-4.509-1.653-9.92-0.15c-5.411,1.503-9.318,7.214-9.619,9.018c-0.301,1.803-0.301,2.705-0.301,2.705
				s-2.555,0.902-3.908,2.856c-1.353,1.954-1.503,8.116,0.301,11.122c1.804,3.006,4.96,4.359,7.214,4.659
				c2.254,0.301,11.272,0.751,11.272,0.751s0.451,1.954,5.711,1.954c5.26,0,10.821-0.751,10.821-0.751s4.509,2.405,8.266,2.255
				c3.757-0.15,5.862-4.058,5.862-4.058s7.815,0.301,11.122-0.902c3.306-1.202,4.81-4.058,4.81-4.058s8.116-1.052,10.22-3.307
				c2.104-2.254,2.856-10.371,1.353-12.625c-1.503-2.255-2.856-3.156-5.11-3.607c-2.255-0.451-7.966-2.555-7.966-2.555
				s-1.052-2.255-2.555-3.156c-1.503-0.902-9.92-2.254-9.92-2.254s-4.96-3.457-11.272-4.208c-6.313-0.752-13.226,1.803-15.18,3.306
				C385.004,442.018,385.756,443.521,385.756,443.521z"/>
			<path style="fill:none;stroke:#263238;stroke-linecap:round;stroke-linejoin:round;stroke-miterlimit:10;" d="M379.285,468.776
				c0.596,2.11,0.91,3.603,0.91,3.603"/>
			<path style="fill:none;stroke:#263238;stroke-linecap:round;stroke-linejoin:round;stroke-miterlimit:10;" d="M367.57,454.493
				c0,0,4.509-0.902,7.665,4.208c1.273,2.061,2.327,4.686,3.13,7.083"/>
			<path style="fill:none;stroke:#263238;stroke-linecap:round;stroke-linejoin:round;stroke-miterlimit:10;" d="M394.473,454.193
				c3.156,10.671,3.156,19.99,3.156,19.99"/>
			<path style="fill:none;stroke:#263238;stroke-linecap:round;stroke-linejoin:round;stroke-miterlimit:10;" d="M387.71,443.822
				c0,0,2.625-0.219,5.356,6.342"/>
			<path style="fill:none;stroke:#263238;stroke-linecap:round;stroke-linejoin:round;stroke-miterlimit:10;" d="M413.202,467.248
				c-0.462,3.068-0.994,4.98-0.994,4.98"/>
			<path style="fill:none;stroke:#263238;stroke-linecap:round;stroke-linejoin:round;stroke-miterlimit:10;" d="M412.809,442.62
				c0,0,1.202,9.769,1.052,16.984c-0.018,0.859-0.055,1.692-0.106,2.493"/>
			<path style="fill:none;stroke:#263238;stroke-linecap:round;stroke-linejoin:round;stroke-miterlimit:10;" d="M426.637,448.932
				c0,0,2.255,7.665,0.601,17.885"/>
		</g>
	</g>
</g>
<g id="Dish_1">
	<g>
		<g>
			
				<ellipse style="fill:#FFFFFF;stroke:#263238;stroke-linecap:round;stroke-linejoin:round;stroke-miterlimit:10;" cx="250.508" cy="423.976" rx="58.261" ry="17.835"/>
			
				<ellipse style="fill:#FFFFFF;stroke:#263238;stroke-linecap:round;stroke-linejoin:round;stroke-miterlimit:10;" cx="250.508" cy="422.403" rx="58.261" ry="17.835"/>
			
				<ellipse style="fill:#FFFFFF;stroke:#263238;stroke-linecap:round;stroke-linejoin:round;stroke-miterlimit:10;" cx="250.508" cy="421.197" rx="38.501" ry="11.786"/>
		</g>
		<g>
			<path style="fill:#ABABAB;stroke:#263238;stroke-linecap:round;stroke-linejoin:round;stroke-miterlimit:10;" d="
				M223.764,409.091c0,0-8.111,1.217-14.195,6.692c-6.083,5.475,0,11.153,5.07,13.383c5.07,2.231,13.992,3.447,16.628,0.811
				c2.636-2.636-1.014-5.475-3.244-6.083c-2.231-0.608-9.936-2.433-8.719-4.461c1.217-2.028,9.328-2.231,12.167-5.069
				S230.252,406.657,223.764,409.091z"/>
			<path style="fill:none;stroke:#263238;stroke-linecap:round;stroke-linejoin:round;stroke-miterlimit:10;" d="M219.302,419.432
				c0,0-1.42-1.419,1.825-3.65"/>
		</g>
		<g>
			<g>
				<path style="fill:#92E3A9;stroke:#263238;stroke-linecap:round;stroke-linejoin:round;stroke-miterlimit:10;" d="
					M269.744,417.237c0,0,1.756-2.927,3.279-3.044c1.522-0.117,1.171,1.171,3.279,1.288s2.927-1.756,5.035-0.702
					s1.639,1.756,3.044,2.81c1.405,1.054,3.279,1.054,4.332,1.522c1.054,0.468,2.576,0.117,1.522,2.225
					c-1.054,2.108,1.054,3.044-1.288,3.63c-2.342,0.585-3.396-0.117-4.332,1.054c-0.937,1.171-1.054,2.225-2.576,2.342
					c-1.522,0.117-2.693-0.117-4.215,0.585c-1.522,0.703-2.81,0.937-3.279,1.054c-0.468,0.117-4.135,1.535-8.039,0.006
					C262.601,428.478,264.24,420.984,269.744,417.237z"/>
				
					<line style="fill:#92E3A9;stroke:#263238;stroke-linecap:round;stroke-linejoin:round;stroke-miterlimit:10;" x1="273.022" y1="420.164" x2="275.949" y2="417.354"/>
				
					<line style="fill:#92E3A9;stroke:#263238;stroke-linecap:round;stroke-linejoin:round;stroke-miterlimit:10;" x1="275.715" y1="421.687" x2="282.272" y2="419.696"/>
				<path style="fill:#FFFFFF;stroke:#263238;stroke-linecap:round;stroke-linejoin:round;stroke-miterlimit:10;" d="
					M278.525,424.497c0.351,0,5.152-0.702,6.089-0.702"/>
			</g>
			<path style="fill:#FFFFFF;stroke:#263238;stroke-linecap:round;stroke-linejoin:round;stroke-miterlimit:10;" d="
				M257.862,408.673c0,0-8.314-2.231-16.222-1.014c-7.908,1.217-7.706,4.867-7.908,6.083c-0.203,1.217-6.489,1.622-6.895,4.461
				c-0.406,2.839,4.461,7.097,18.25,6.692c13.789-0.405,21.495-0.811,24.739-6.692C273.071,412.323,261.31,409.281,257.862,408.673z
				"/>
			
				<ellipse style="fill:#92E3A9;stroke:#263238;stroke-linecap:round;stroke-linejoin:round;stroke-miterlimit:10;" cx="254.111" cy="414.351" rx="8.821" ry="4.056"/>
			<ellipse style="fill:#FFFFFF;" cx="255.024" cy="412.627" rx="2.028" ry="0.913"/>
		</g>
		<g>
			<g>
				<path style="fill:#92E3A9;stroke:#263238;stroke-linecap:round;stroke-linejoin:round;stroke-miterlimit:10;" d="
					M258.305,427.521c0,2.731-4.716,4.944-10.534,4.944c-5.818,0-10.534-2.214-10.534-4.944c0-2.731,4.716-4.944,10.534-4.944
					C253.589,422.576,258.305,424.79,258.305,427.521z"/>
				<path style="fill:#92E3A9;stroke:#263238;stroke-linecap:round;stroke-linejoin:round;stroke-miterlimit:10;" d="
					M257.836,425.764c0,2.731-4.716,4.944-10.534,4.944c-5.818,0-10.534-2.214-10.534-4.944c0-2.731,4.716-4.944,10.534-4.944
					C253.12,420.82,257.836,423.034,257.836,425.764z"/>
				<path style="fill:#92E3A9;stroke:#263238;stroke-linecap:round;stroke-linejoin:round;stroke-miterlimit:10;" d="
					M243.867,424.029c0,0-3.63,0.351-3.63,1.639s1.99,2.459,3.981,2.576c1.991,0.117,4.215-0.117,3.396-0.703
					c-0.82-0.585-1.522-2.81-0.234-2.342c1.288,0.468,2.225,1.639,4.098,1.991c1.873,0.351,4.098,0.351,3.279-1.405
					c-0.82-1.756-3.044-2.459-4.918-2.576c-1.874-0.117-1.639,0.234-2.693,0.586C246.091,424.146,245.272,423.56,243.867,424.029z"
					/>
			</g>
			<path style="fill:#FFFFFF;" d="M244.569,426.136c0,0.194-0.341,0.351-0.761,0.351c-0.42,0-0.761-0.157-0.761-0.351
				s0.341-0.351,0.761-0.351C244.229,425.785,244.569,425.942,244.569,426.136z"/>
			<path style="fill:#FFFFFF;" d="M251.829,425.316c0,0.194-0.419,0.351-0.937,0.351c-0.517,0-0.937-0.157-0.937-0.351
				s0.419-0.351,0.937-0.351C251.41,424.965,251.829,425.122,251.829,425.316z"/>
			<path style="fill:#FFFFFF;" d="M247.848,423.911c0,0.259-0.419,0.468-0.937,0.468c-0.517,0-0.937-0.21-0.937-0.468
				c0-0.259,0.419-0.468,0.937-0.468C247.428,423.443,247.848,423.653,247.848,423.911z"/>
			<ellipse style="fill:#FFFFFF;" cx="246.209" cy="427.073" rx="0.82" ry="0.351"/>
		</g>
		<g>
			<g>
				<path style="fill:#92E3A9;stroke:#263238;stroke-linecap:round;stroke-linejoin:round;stroke-miterlimit:10;" d="
					M277.508,426.818c0,2.731-4.716,4.944-10.534,4.944s-10.534-2.214-10.534-4.944c0-2.731,4.716-4.944,10.534-4.944
					S277.508,424.087,277.508,426.818z"/>
				<path style="fill:#92E3A9;stroke:#263238;stroke-linecap:round;stroke-linejoin:round;stroke-miterlimit:10;" d="
					M277.039,425.062c0,2.731-4.716,4.945-10.534,4.945c-5.818,0-10.534-2.214-10.534-4.945c0-2.731,4.716-4.944,10.534-4.944
					C272.323,420.117,277.039,422.331,277.039,425.062z"/>
				<path style="fill:#92E3A9;stroke:#263238;stroke-linecap:round;stroke-linejoin:round;stroke-miterlimit:10;" d="
					M263.069,423.326c0,0-3.63,0.351-3.63,1.639c0,1.288,1.991,2.459,3.981,2.576c1.991,0.117,4.215-0.117,3.396-0.703
					c-0.82-0.585-1.522-2.81-0.234-2.342c1.288,0.468,2.225,1.639,4.098,1.991c1.873,0.351,4.098,0.351,3.279-1.405
					c-0.82-1.756-3.044-2.459-4.918-2.576c-1.873-0.117-1.639,0.234-2.693,0.585C265.294,423.443,264.474,422.858,263.069,423.326z"
					/>
			</g>
			<path style="fill:#FFFFFF;" d="M263.772,425.434c0,0.194-0.341,0.351-0.761,0.351c-0.42,0-0.761-0.157-0.761-0.351
				s0.341-0.351,0.761-0.351C263.431,425.082,263.772,425.24,263.772,425.434z"/>
			<path style="fill:#FFFFFF;" d="M271.032,424.614c0,0.194-0.419,0.351-0.937,0.351c-0.517,0-0.937-0.157-0.937-0.351
				s0.419-0.351,0.937-0.351C270.612,424.263,271.032,424.42,271.032,424.614z"/>
			<path style="fill:#FFFFFF;" d="M267.051,423.209c0,0.259-0.419,0.468-0.937,0.468s-0.937-0.21-0.937-0.468
				c0-0.259,0.419-0.468,0.937-0.468S267.051,422.95,267.051,423.209z"/>
			<path style="fill:#FFFFFF;" d="M266.231,426.37c0,0.194-0.367,0.351-0.82,0.351c-0.453,0-0.82-0.157-0.82-0.351
				s0.367-0.351,0.82-0.351C265.864,426.019,266.231,426.176,266.231,426.37z"/>
		</g>
	</g>
</g>
<g id="Character_2">
	<g>
		<g>
			<path style="fill:#92E3A9;stroke:#263238;stroke-linecap:round;stroke-linejoin:round;stroke-miterlimit:10;" d="
				M498.697,244.559c0,0-51.856,18.356-58.74,29.37c-6.884,11.014-19.733,88.11-24.322,100.041
				c-4.589,11.932-5.507,23.404-0.918,25.24c4.589,1.836,228.535,0,228.535,0s-21.11-120.692-26.158-132.624
				c-5.048-11.932-46.808-29.37-54.151-32.123c-7.342-2.753-17.438-2.753-17.438-2.753L498.697,244.559z"/>
			<path style="fill:none;stroke:#263238;stroke-linecap:round;stroke-linejoin:round;stroke-miterlimit:10;" d="M570.591,360.04
				c-1.475,3.008-2.855,5.651-4.085,7.766"/>
			<path style="fill:none;stroke:#263238;stroke-linecap:round;stroke-linejoin:round;stroke-miterlimit:10;" d="M596.416,298.639
				c0,0-13.497,35.22-23.841,57.261"/>
			<path style="fill:none;stroke:#263238;stroke-linecap:round;stroke-linejoin:round;stroke-miterlimit:10;" d="M570.245,343.971
				c0,0-16.824,28.508-19.628,32.247"/>
			<path style="fill:none;stroke:#263238;stroke-linecap:round;stroke-linejoin:round;stroke-miterlimit:10;" d="M477.933,304.296
				c0.459,2.318,1.004,4.646,1.647,6.961"/>
			<path style="fill:none;stroke:#263238;stroke-linecap:round;stroke-linejoin:round;stroke-miterlimit:10;" d="M477.244,259.382
				c0,0-3.296,18.787-0.2,39.754"/>
			<path style="fill:none;stroke:#263238;stroke-linecap:round;stroke-linejoin:round;stroke-miterlimit:10;" d="M470.701,262.186
				c0,0-2.337,20.096-0.935,28.041"/>
			<g>
				<path style="fill:none;stroke:#263238;stroke-linecap:round;stroke-linejoin:round;stroke-miterlimit:10;" d="M441.644,295.367
					c1.452,13.41,4.346,41.444,5.302,60.315c1.295,25.582,3.886,42.097,3.886,42.097"/>
				<path style="fill:none;stroke:#263238;stroke-linecap:round;stroke-linejoin:round;stroke-miterlimit:10;" d="M440.793,287.679
					c0,0,0.148,1.29,0.399,3.557"/>
			</g>
		</g>
		<path style="fill:#92E3A9;stroke:#263238;stroke-linecap:round;stroke-linejoin:round;stroke-miterlimit:10;" d="M535.464,274.497
			c18.684-6.854,30.981-22.469,31.865-38.287c-1.926-0.795-3.443-1.393-4.385-1.747c-7.342-2.753-17.438-2.753-17.438-2.753
			l-46.808,12.849c0,0-8.962,3.173-19.927,7.671c0.25,0.954,0.532,1.904,0.877,2.844
			C486.771,274.496,511.761,283.192,535.464,274.497z"/>
		<g>
			<path style="fill:#FFFFFF;stroke:#263238;stroke-linecap:round;stroke-linejoin:round;stroke-miterlimit:10;" d="
				M472.582,148.867c0,0-17.083,20.588-14.017,28.91c3.066,8.323,2.628,10.951,0,16.207c-2.628,5.256-8.323,8.761-6.57,12.265
				c1.752,3.504,8.323,6.132,8.323,6.132s4.38,25.844,6.571,28.034c2.19,2.19,22.778,0.876,24.092,3.504
				c1.314,2.628-0.438,10.951,2.628,15.331c3.066,4.38,21.026,10.075,37.671,3.504c16.645-6.57,23.654-24.968,23.654-28.91
				c0-3.942-6.57-5.256-8.323-15.331c-1.752-10.075,0.438-12.703,3.066-15.769c2.628-3.066,8.761-14.017,10.075-32.853
				c1.314-18.835-12.703-28.472-12.703-28.472s0-8.761-14.017-14.017c-14.017-5.256-73.59-0.438-74.028,7.008
				c-0.438,7.447,7.009,8.761,7.009,8.761s-10.075,3.066-4.818,5.256C466.45,150.619,472.582,148.867,472.582,148.867z"/>
			<path style="fill:none;stroke:#263238;stroke-width:2;stroke-linecap:round;stroke-linejoin:round;stroke-miterlimit:10;" d="
				M464.96,194.101c0,0,4.237-3.39,8.192-0.565"/>
			<path style="fill:#263238;stroke:#263238;stroke-linecap:round;stroke-linejoin:round;stroke-miterlimit:10;" d="
				M472.582,148.867c0,0,17.959,0.438,15.769,3.942c-2.19,3.504-12.265,20.15-4.818,22.778c7.447,2.628,20.588,12.703,21.026,14.893
				c0.438,2.19-4.818,30.662-7.446,34.167c-2.628,3.504-8.323-1.752-15.331-7.447c-7.009-5.695-15.331-6.57-21.464-4.818
				c-6.133,1.752,4.818,34.605,9.199,36.795c4.38,2.19,30.662-2.19,37.671-9.637c7.009-7.447,6.132-15.331,5.256-22.778
				c-0.876-7.447-2.628-17.083-0.438-23.216c2.19-6.133,9.199-10.075,14.017-6.133c4.818,3.942,5.257,8.761,5.257,14.017
				c0,5.257,2.628,8.323,7.008,10.075c4.38,1.752,5.695,1.752,10.951-3.504c5.256-5.256,7.447-17.521,10.513-31.101
				c3.066-13.579,2.628-19.273-0.438-25.406c-3.066-6.133-8.761-10.513-8.761-10.513s-4.38-12.703-12.265-15.331
				c-7.885-2.628-35.043-4.38-53.878-1.752c-18.835,2.628-32.414,6.571-29.348,11.827c3.066,5.256,3.942,7.009,3.942,7.009
				s-6.133,4.38-2.19,6.57C460.755,151.495,472.582,148.867,472.582,148.867z"/>
			<path style="fill:none;stroke:#263238;stroke-width:2;stroke-linecap:round;stroke-linejoin:round;stroke-miterlimit:10;" d="
				M463.623,183.263c0,0,3.699-2.394,7.181-0.87c3.482,1.523,5.005,4.57,5.005,4.57"/>
			<path style="fill:none;stroke:#FFFFFF;stroke-linecap:round;stroke-linejoin:round;stroke-miterlimit:10;" d="M461.664,223.302
				c0,0,8.486,1.523,14.362-3.699"/>
			<path style="fill:none;stroke:#263238;stroke-linecap:round;stroke-linejoin:round;stroke-miterlimit:10;" d="M512.005,193.546
				c0,0,6.869-11.084,14.017-6.133c7.149,4.952,6.044,12.314,1.995,18.939c-4.049,6.626-12.147,7.73-12.883,4.417"/>
		</g>
		<g>
			<path style="fill:#92E3A9;stroke:#263238;stroke-linecap:round;stroke-linejoin:round;stroke-miterlimit:10;" d="
				M612.046,286.779c0,0-8.719,36.712-7.343,45.432c1.377,8.719,3.212,46.808,3.212,46.808l-51.397,5.966
				c0,0,1.986,3.051,1.986,12.23s0.508,12.457,0.508,12.457s25.381,10.552,37.626,12.203c39.539,5.333,59.003-3.39,64.51-13.945
				c5.507-10.555,0.459-22.486-0.918-25.699c-1.377-3.212-11.932-55.986-13.767-70.671c-1.836-14.685-11.014-27.993-15.603-35.336
				c-4.589-7.342-16.521-17.438-20.651-15.144"/>
			<path style="fill:none;stroke:#263238;stroke-linecap:round;stroke-linejoin:round;stroke-miterlimit:10;" d="M567.788,406.985
				c-0.471,0.83-1.009,1.686-1.62,2.566"/>
			<path style="fill:none;stroke:#263238;stroke-linecap:round;stroke-linejoin:round;stroke-miterlimit:10;" d="M566.168,387.222
				c0,0,7.464,5.673,3.19,16.506"/>
			<path style="fill:none;stroke:#263238;stroke-linecap:round;stroke-linejoin:round;stroke-miterlimit:10;" d="M643.61,383.183
				c1.349,0.95,2.437,1.796,3.113,2.336"/>
			<path style="fill:none;stroke:#263238;stroke-linecap:round;stroke-linejoin:round;stroke-miterlimit:10;" d="M610.876,378.401
				c0,0,12.712-1.271,18.813-1.271c3.509,0,7.774,2.102,11.249,4.275"/>
			<path style="fill:none;stroke:#263238;stroke-linecap:round;stroke-linejoin:round;stroke-miterlimit:10;" d="M631.803,374.166
				c5.292-0.019,11.872,0.814,15.682,4.489"/>
			<path style="fill:none;stroke:#263238;stroke-linecap:round;stroke-linejoin:round;stroke-miterlimit:10;" d="M623.588,374.841
				c0,0,1.934-0.352,4.767-0.548"/>
		</g>
		<path style="fill:#92E3A9;stroke:#263238;stroke-linecap:round;stroke-linejoin:round;stroke-miterlimit:10;" d="M444.815,368.77
			c0,0-10.723-9.191-19.301-8.272c-8.578,0.919-15.625,0.919-20.833,8.578c-5.208,7.659-4.072,18.165-1.883,23.175
			c2.189,5.01,37.728,14.201,44.161,2.866C453.394,383.782,444.815,368.77,444.815,368.77z"/>
		<path style="fill:#FFFFFF;stroke:#263238;stroke-linecap:round;stroke-linejoin:round;stroke-miterlimit:10;" d="M431.583,400.991
			l18.013,7.159c0,0,35.332,13.163,36.025,14.087c0.693,0.924-7.621,0.924-15.472-1.155c-7.852-2.078-22.862-8.544-25.172-9.699
			c-2.309-1.155-3.002-3.002-3.002-3.002l-18.705-7.159l1.386-3.464L431.583,400.991z"/>
		<g>
			<path style="fill:#FFFFFF;stroke:#263238;stroke-linecap:round;stroke-linejoin:round;stroke-miterlimit:10;" d="
				M437.257,368.429c0,0,4.041,6.169,5.743,9.146c1.702,2.978,3.616,6.594,2.978,9.572c-0.638,2.978-2.765,10.21-4.254,10.848
				c-1.489,0.638-3.191-19.569-4.042-22.121C436.831,373.321,437.257,368.429,437.257,368.429z"/>
			<path style="fill:#FFFFFF;stroke:#263238;stroke-linecap:round;stroke-linejoin:round;stroke-miterlimit:10;" d="
				M431.514,362.686c0,0-2.34-0.851-3.616,0.638c-1.276,1.489-3.616,3.191-3.616,3.191s-6.594-2.553-9.784-0.213
				c-3.191,2.34-8.508,6.168-10.635,10.635c-2.127,4.467-1.702,11.699-1.064,15.315c0.638,3.616,7.445,8.721,12.55,10.423
				c5.105,1.702,12.124,4.467,15.102,3.616c2.978-0.851,2.127-6.168,1.489-9.359c-0.638-3.191-1.276-16.591-1.276-16.591
				s2.127,9.146,3.403,14.889c1.276,5.743,2.34,10.423,4.467,10.21c2.127-0.213,4.041-3.403,4.254-5.318
				c0.213-1.914-1.702-12.124-2.127-19.782c-0.425-7.657-2.978-12.55-4.254-14.677C435.13,363.536,431.514,362.686,431.514,362.686z
				"/>
			<path style="fill:none;stroke:#263238;stroke-linecap:round;stroke-linejoin:round;stroke-miterlimit:10;" d="M416.837,371.194
				c0,0,0.851,20.207,2.127,22.972c1.276,2.765,6.168,11.699,6.168,11.699"/>
			<path style="fill:none;stroke:#263238;stroke-linecap:round;stroke-linejoin:round;stroke-miterlimit:10;" d="M408.116,378
				c0,0,1.489,9.359,2.978,14.677c1.489,5.318,1.914,8.721,4.254,9.997"/>
			
				<line style="fill:none;stroke:#263238;stroke-linecap:round;stroke-linejoin:round;stroke-miterlimit:10;" x1="430.663" y1="380.34" x2="427.685" y2="371.406"/>
		</g>
		<g>
			<path style="fill:#FFFFFF;stroke:#263238;stroke-linecap:round;stroke-linejoin:round;stroke-miterlimit:10;" d="
				M494.345,413.319c0,0-10.953,3.962-15.613,6.991c-4.661,3.03-6.991,6.525-7.457,7.457c-0.466,0.932,4.45,0.428,4.45,0.428
				s7.201-6.254,8.833-7.419c1.631-1.165,4.894-3.263,4.894-3.263s17.01-4.628,20.74-5.111c3.729-0.482,13.517-0.715,13.517-0.715
				s-8.156-1.864-12.118-1.398C507.628,410.756,494.345,413.319,494.345,413.319z"/>
			<path style="fill:none;stroke:#263238;stroke-linecap:round;stroke-linejoin:round;stroke-miterlimit:10;" d="M472.455,428.196
				c0,0,3.269-4.062,5.152-5.845"/>
			<path style="fill:none;stroke:#263238;stroke-linecap:round;stroke-linejoin:round;stroke-miterlimit:10;" d="M474.536,428.196
				c0,0,3.864-4.656,5.053-5.449"/>
		</g>
		<g>
			<path style="fill:#FFFFFF;stroke:#263238;stroke-linecap:round;stroke-linejoin:round;stroke-miterlimit:10;" d="
				M554.987,384.347c0,0-24.048-7.309-27.585-6.837c-3.575,0.477-16.504,11.553-19.569,15.325s-11.553,16.504-12.496,18.39
				c-0.943,1.886-0.006,3.434,3.065,3.301c5.423-0.236,12.496-12.967,12.496-12.967s-1.65,9.431-0.707,10.845
				c0.943,1.415,16.975,4.951,23.813,4.715c6.837-0.236,10.609-1.65,11.317-3.301c0.707-1.65,1.179-3.065,1.179-3.065
				s4.244,4.479,8.723,2.122c4.48-2.358,9.431-8.016,7.78-15.797C561.352,389.298,558.287,385.526,554.987,384.347z"/>
			<path style="fill:none;stroke:#263238;stroke-linecap:round;stroke-linejoin:round;stroke-miterlimit:10;" d="M519.15,386.469
				c0,0-6.366,5.894-7.073,8.488c-0.707,2.594-1.179,6.602-1.179,6.602"/>
			<path style="fill:none;stroke:#263238;stroke-linecap:round;stroke-linejoin:round;stroke-miterlimit:10;" d="M529.524,388.12
				c0,0-8.959,12.732-8.959,15.796c0,3.065,1.512,11.501,1.512,11.501"/>
			<path style="fill:none;stroke:#263238;stroke-linecap:round;stroke-linejoin:round;stroke-miterlimit:10;" d="M540.605,392.599
				c0,0-8.724,10.61-7.545,13.91c1.179,3.301,4.715,9.195,6.13,9.667"/>
			<path style="fill:none;stroke:#263238;stroke-linecap:round;stroke-linejoin:round;stroke-miterlimit:10;" d="M546.499,410.753
				c0,0,5.187-0.943,6.366-5.423"/>
		</g>
	</g>
</g>
<g id="Character_1">
	<g>
		<g>
			<g>
				<path style="fill:#263238;stroke:#263238;stroke-linecap:round;stroke-linejoin:round;stroke-miterlimit:10;" d="
					M210.851,171.651c0,0-14.879,4.844-28.028,14.187c-13.149,9.343-4.152,19.377-5.882,25.606
					c-1.73,6.228-20.415,9.343-29.412,17.993c-8.997,8.65-9.343,28.72-6.228,37.024c3.114,8.305,16.263,21.799,32.18,23.876
					c15.917,2.076,30.104-14.533,41.177-33.91c11.073-19.377,12.803-30.796,4.498-42.907c-8.304-12.111-5.882-28.028-2.768-29.412
					C219.501,182.724,214.311,170.613,210.851,171.651z"/>
				<path style="fill:#263238;stroke:#263238;stroke-linecap:round;stroke-linejoin:round;stroke-miterlimit:10;" d="
					M216.733,167.153c0,0-5.882,1.384-5.882,4.498c0,3.114,3.806,12.111,5.536,12.457c1.73,0.346,12.803-0.346,8.65-4.844
					C220.886,174.765,219.155,165.077,216.733,167.153z"/>
			</g>
			<path style="fill:#FFFFFF;stroke:#263238;stroke-linecap:round;stroke-linejoin:round;stroke-miterlimit:10;" d="
				M335.172,304.563c0,0,7.727,53.059,9.053,58.894c1.326,5.834,14.303,36.31,14.303,36.31h-41.467l-6.906-87.248L335.172,304.563z"
				/>
			<g>
				<path style="fill:#FFFFFF;stroke:#263238;stroke-linecap:round;stroke-linejoin:round;stroke-miterlimit:10;" d="
					M228.844,224.246l-10.035,4.152c0,0,2.076,0-8.997,5.536c-11.073,5.536-46.021,12.457-50.173,25.952
					c-2.159,7.016,21.453,140.139,21.453,140.139h142.215c0,0-4.406-0.26-4.406-25.52c0-6.241,3.976-28.029,3.848-32.681
					c-0.388-14.174-1.172-21.039-1.172-21.039s6.846-7.267,12.729-11.073c5.882-3.806,8.997-8.305,8.997-8.305
					s-14.255-38.996-22.56-46.608c-8.305-7.613-38.419-18.759-50.184-19.797C258.795,233.966,238.879,220.094,228.844,224.246z"/>
				<path style="fill:none;stroke:#263238;stroke-linecap:round;stroke-linejoin:round;stroke-miterlimit:10;" d="M314.983,285.599
					c-0.877-2.833-1.775-5.293-2.656-7.056"/>
				<path style="fill:none;stroke:#263238;stroke-linecap:round;stroke-linejoin:round;stroke-miterlimit:10;" d="M322.141,316.866
					c0,0-2.727-15.371-6.014-27.333"/>
				<path style="fill:none;stroke:#263238;stroke-linecap:round;stroke-linejoin:round;stroke-miterlimit:10;" d="M293.286,359.295
					c-12.923,7.944-37.028,22.026-50.593,25.335"/>
				<path style="fill:none;stroke:#263238;stroke-linecap:round;stroke-linejoin:round;stroke-miterlimit:10;" d="M302.046,353.786
					c0,0-1.845,1.201-4.933,3.135"/>
				
					<line style="fill:none;stroke:#263238;stroke-linecap:round;stroke-linejoin:round;stroke-miterlimit:10;" x1="256.246" y1="373.414" x2="237.085" y2="383.696"/>
				<path style="fill:none;stroke:#263238;stroke-linecap:round;stroke-linejoin:round;stroke-miterlimit:10;" d="M188.948,269.664
					c0,0,1.402,13.086,0.467,22.433"/>
			</g>
			<g>
				<path style="fill:#263238;stroke:#263238;stroke-linecap:round;stroke-linejoin:round;stroke-miterlimit:10;" d="
					M275.641,130.07c0,0,3.181-5.301,18.553-5.301c15.373,0,19.614,7.421,17.493,15.373c-2.12,7.951,10.072,4.771,13.782,13.252
					c3.711,8.482-17.56,20.333-17.56,20.333s-10.112-24.822-17.426-30.404C283.17,137.741,275.641,130.07,275.641,130.07z"/>
				<path style="fill:#FFFFFF;stroke:#263238;stroke-linecap:round;stroke-linejoin:round;stroke-miterlimit:10;" d="
					M232.304,136.011c0,0,20.415-13.495,39.793-8.651c19.377,4.844,34.948,17.647,39.793,30.796
					c4.844,13.149,1.73,16.609,2.422,22.838c0.692,6.228,8.65,10.035,6.92,14.187c-1.73,4.152-7.613,7.267-7.613,7.267
					s-7.266,20.761-10.381,26.298c-3.114,5.536-17.993,0.346-21.453,0.346c-3.46,0-3.806,10.727-4.844,15.917
					c-1.038,5.19-1.384,7.267-16.955,8.305c-15.571,1.038-30.796-8.651-34.256-12.111c-3.46-3.46-5.19-7.959-5.19-7.959
					s7.266-7.958,9.343-16.609l0.692-5.19c0,0-8.305-2.768-10.035-11.765c-1.73-8.997,4.498-20.415,4.498-20.415
					s-3.46,2.768-6.574-3.114C215.349,170.267,215.349,149.159,232.304,136.011z"/>
				<path style="fill:#263238;stroke:#263238;stroke-linecap:round;stroke-linejoin:round;stroke-miterlimit:10;" d="
					M291.844,135.716c-5.813-3.63-12.514-6.548-19.747-8.356c-19.377-4.844-39.793,8.651-39.793,8.651
					c-16.955,13.149-16.955,34.256-13.841,40.139c3.114,5.882,6.574,3.114,6.574,3.114s-6.228,11.419-4.498,20.415
					c1.601,8.324,8.816,11.31,9.889,11.711l0.146,0.054c0,0,3.46,0,11.073-8.305c7.613-8.305,4.152-23.53,9.343-28.028
					c5.19-4.498,10.381,1.038,14.533,0.692c4.152-0.346,2.076-4.152,5.19-7.613c3.114-3.46,15.225-4.844,17.301-14.187
					c2.076-9.343-5.19-11.419-4.844-16.263C283.445,133.88,289.423,135.072,291.844,135.716z"/>
				<path style="fill:#FFFFFF;stroke:#263238;stroke-linecap:round;stroke-linejoin:round;stroke-miterlimit:10;" d="
					M261.024,179.263c0,0-3.806-10.381-11.073-8.65c-7.266,1.73-7.266,10.727-2.768,18.339c4.498,7.613,13.495,13.495,15.225,2.768"
					/>
				<path style="fill:none;stroke:#263238;stroke-width:2;stroke-linecap:round;stroke-linejoin:round;stroke-miterlimit:10;" d="
					M311.463,169.98c0,0-3.114-6.228-10.727-0.346"/>
				<ellipse style="fill:#263238;" cx="305.9" cy="179.251" rx="1.557" ry="4.325"/>
				<path style="fill:none;stroke:#263238;stroke-linecap:round;stroke-linejoin:round;stroke-miterlimit:10;" d="M297.357,203.139
					c0,0,3.46,4.498,10.381,5.19"/>
				<polygon style="fill:#263238;stroke:#263238;stroke-linecap:round;stroke-linejoin:round;stroke-miterlimit:10;" points="
					281.786,229.091 268.22,222.837 277.232,240.33 				"/>
			</g>
		</g>
		<g>
			<path style="fill:#FFFFFF;stroke:#263238;stroke-linecap:round;stroke-linejoin:round;stroke-miterlimit:10;" d="
				M152.473,309.729c0,0,12.729,78.232,16.177,83.801c3.447,5.569,10.89,11.915,15.646,12.464
				c4.756,0.549,9.547-5.039,11.403-21.481c1.856-16.442-6.63-65.768-6.63-65.768L152.473,309.729z"/>
			<path style="fill:#FFFFFF;stroke:#263238;stroke-linecap:round;stroke-linejoin:round;stroke-miterlimit:10;" d="M180.401,244.95
				c0,0-21.107,4.498-25.952,15.571c-4.844,11.073-10.381,51.211-10.381,51.211l49.481,11.765c0,0-7.613-36.332-11.419-48.789"/>
			<g>
				<g>
					<path style="fill:none;stroke:#263238;stroke-linecap:round;stroke-linejoin:round;stroke-miterlimit:10;" d="M251.497,307.475
						h-20.121c-2.847,0-5.217-2.187-5.445-5.025l-3.371-41.937h37.753l-3.371,41.937
						C256.713,305.288,254.344,307.475,251.497,307.475z"/>
					<path style="fill:#92E3A9;stroke:#263238;stroke-linecap:round;stroke-linejoin:round;stroke-miterlimit:10;" d="
						M225.595,273.405l2.16,26.874c0.201,2.504,2.292,4.434,4.804,4.434h17.754c2.512,0,4.603-1.93,4.804-4.434l2.16-26.874H225.595
						z"/>
					<path style="fill:#FFFFFF;" d="M250.527,263.104l-0.951,39.889c0,0,4.429-0.666,4.804-4.433l1.959-35.455H250.527z"/>
				</g>
				<g>
					<path style="fill:#FFFFFF;stroke:#263238;stroke-linecap:round;stroke-linejoin:round;stroke-miterlimit:10;" d="
						M202.2,307.581c0,0,7.613-30.796,9.343-33.564c1.73-2.768,11.765-8.651,14.533-8.651s15.917,1.038,15.571,4.152
						c-0.346,3.114-3.114,2.422-4.498,2.422c-1.384,0-7.612,0-9.689,1.384c-2.076,1.384-4.498,3.114-4.498,3.114
						s10.381-1.384,13.841-1.038c3.46,0.346,8.651-1.73,8.997,2.076c0.346,3.806-3.806,3.806-5.19,4.152
						c-1.384,0.346-13.841,4.152-15.571,4.844c-1.73,0.692-4.152,3.114-4.152,3.114s17.301-0.346,19.723-0.692
						c2.422-0.346,6.228-0.692,5.536,1.73c-0.692,2.422-4.152,3.46-8.305,4.498c-4.152,1.038-16.609,4.844-16.609,4.844
						s3.806,3.46,8.997,4.152c5.19,0.692,17.693-0.326,17.647,2.768c-0.022,1.496-0.886,3.741-11.419,3.806
						c-6.228,0.038-11.073,0.346-11.073,0.346s1.038,2.422-3.46,6.921c-4.498,4.498-8.65,5.882-8.65,5.882
						s-1.73,41.177-5.536,55.018c-3.806,13.841-12.803,25.606-18.685,27.682c-5.882,2.076-12.803-4.152-17.647-11.073
						c-4.844-6.92-2.076-27.682,3.114-34.948c5.19-7.267,19.031-30.104,23.184-39.793C201.854,311.041,202.2,307.581,202.2,307.581z
						"/>
					
						<line style="fill:none;stroke:#263238;stroke-linecap:round;stroke-linejoin:round;stroke-miterlimit:10;" x1="225.384" y1="311.041" x2="219.155" y2="311.733"/>
					<path style="fill:none;stroke:#263238;stroke-linecap:round;stroke-linejoin:round;stroke-miterlimit:10;" d="M222.962,276.438
						c0,0-5.501,2.245-7.4,4.663"/>
					
						<line style="fill:none;stroke:#263238;stroke-linecap:round;stroke-linejoin:round;stroke-miterlimit:10;" x1="220.886" y1="289.587" x2="216.597" y2="291.635"/>
				</g>
			</g>
		</g>
	</g>
</g>
</svg>
